<?xml version="1.0" standalone="no"?>
<!DOCTYPE svg PUBLIC "-//W3C//DTD SVG 20010904//EN"
 "http://www.w3.org/TR/2001/REC-SVG-20010904/DTD/svg10.dtd">
<svg version="1.0" xmlns="http://www.w3.org/2000/svg"
 width="512.000000pt" height="512.000000pt" viewBox="0 0 512.000000 512.000000"
 preserveAspectRatio="xMidYMid meet">
<metadata>
Created by potrace 1.16, written by Peter Selinger 2001-2019
</metadata>
<g transform="translate(0.000000,512.000000) scale(0.100000,-0.100000)"
fill="#000000" stroke="none">
<path d="M2319 5105 c-525 -85 -953 -391 -1178 -842 -79 -158 -86 -270 -23
-387 40 -73 97 -116 276 -207 158 -80 167 -83 233 -83 141 -1 237 64 333 224
53 89 192 231 272 278 136 80 308 111 438 78 248 -62 410 -260 410 -498 0 -97
-16 -161 -65 -263 -78 -162 -190 -282 -475 -513 -232 -188 -276 -228 -346
-317 -165 -206 -243 -407 -266 -689 -8 -108 -8 -154 1 -197 21 -100 91 -183
178 -215 57 -20 510 -19 559 1 103 43 155 121 183 277 11 56 27 123 36 148 50
139 179 287 425 486 369 298 574 566 673 880 108 340 68 763 -103 1098 -192
379 -529 631 -969 727 -125 28 -461 36 -592 14z m539 -185 c523 -106 871 -454
984 -983 29 -137 31 -372 4 -497 -47 -217 -146 -407 -313 -603 -81 -94 -160
-166 -373 -344 -185 -154 -302 -276 -368 -383 -57 -92 -106 -227 -117 -325 -9
-71 -25 -105 -62 -135 -26 -20 -35 -21 -235 -18 l-208 3 -32 33 -33 33 1 122
c1 265 93 501 268 685 39 41 152 140 251 220 317 258 465 417 551 597 63 131
79 198 78 340 0 137 -17 211 -69 316 -127 251 -424 405 -715 371 -205 -24
-368 -109 -526 -274 -72 -74 -107 -121 -158 -205 -43 -72 -81 -103 -136 -110
-33 -5 -58 5 -190 73 -166 86 -193 111 -206 190 -7 47 13 102 86 230 217 378
605 623 1087 684 105 13 316 4 431 -20z"/>
<path d="M2222 1116 c-131 -49 -240 -167 -282 -303 -27 -87 -29 -388 -4 -474
47 -158 149 -267 300 -320 48 -17 77 -20 160 -17 93 3 107 6 175 40 130 65
220 178 254 319 20 86 20 332 0 418 -33 140 -132 263 -262 324 -61 28 -79 32
-173 34 -91 3 -114 0 -168 -21z m277 -181 c53 -27 100 -74 133 -138 22 -39 23
-54 23 -227 0 -173 -1 -188 -23 -227 -58 -109 -145 -167 -252 -167 -115 0
-206 61 -259 173 -25 53 -26 64 -26 221 0 159 1 167 27 220 78 159 232 219
377 145z"/>
</g>
</svg>
