<?xml version="1.0" standalone="no"?>
<!DOCTYPE svg PUBLIC "-//W3C//DTD SVG 20010904//EN"
 "http://www.w3.org/TR/2001/REC-SVG-20010904/DTD/svg10.dtd">
<svg version="1.0" xmlns="http://www.w3.org/2000/svg"
 width="512.000000pt" height="512.000000pt" viewBox="0 0 512.000000 512.000000"
 preserveAspectRatio="xMidYMid meet">
<metadata>
Created by potrace 1.16, written by Peter Selinger 2001-2019
</metadata>
<g transform="translate(0.000000,512.000000) scale(0.100000,-0.100000)"
fill="#000000" stroke="none">
<path d="M4399 4935 c-20 -7 -56 -26 -79 -41 -30 -20 -358 -410 -1040 -1235
l-997 -1206 -161 -478 c-160 -471 -174 -523 -152 -579 l10 -26 -156 0 c-151 0
-156 -1 -179 -25 -35 -34 -35 -96 0 -130 l24 -25 891 0 891 0 24 25 c31 30 34
92 6 126 l-19 24 -558 5 -558 5 363 204 364 205 72 85 c352 415 1922 2327
1943 2366 24 45 27 60 27 155 0 91 -3 111 -24 150 -37 69 -61 94 -234 237
-187 154 -225 173 -345 172 -42 0 -93 -6 -113 -14z m187 -178 c58 -33 325
-264 339 -293 21 -45 19 -112 -6 -153 -18 -29 -273 -345 -320 -395 -17 -18
-25 -12 -274 194 -175 145 -253 216 -247 223 121 157 342 412 366 423 39 17
114 17 142 1z m-374 -792 l255 -210 -61 -73 c-34 -41 -68 -83 -77 -94 -16 -21
-21 -17 -268 186 -138 114 -253 212 -256 217 -6 9 136 189 146 186 4 -1 121
-96 261 -212z m-276 -326 c140 -116 254 -214 252 -218 -2 -4 -268 -328 -592
-719 -401 -486 -592 -709 -600 -703 -174 141 -501 414 -500 418 1 7 1178 1432
1182 1433 2 0 118 -95 258 -211z m-1290 -1591 l212 -174 -96 -55 c-53 -30
-122 -68 -154 -86 l-57 -32 -129 107 -128 107 55 167 c49 147 57 166 71 154 8
-7 110 -92 226 -188z m-342 -380 c33 -28 64 -55 68 -58 4 -3 -42 -34 -103 -68
-61 -35 -113 -61 -115 -59 -3 3 45 156 71 225 7 19 13 16 79 -40z"/>
<path d="M555 4515 c-217 -40 -396 -178 -490 -377 -59 -126 -65 -164 -65 -441
0 -283 4 -299 73 -345 l41 -27 538 -3 538 -3 0 -1265 c0 -1390 -2 -1344 61
-1482 78 -173 209 -295 394 -366 l80 -31 1400 -3 c1565 -3 1473 -7 1623 68
135 68 236 170 303 305 40 83 69 178 69 229 0 51 -38 114 -84 141 l-43 25
-531 0 -532 0 0 741 0 741 -29 29 c-40 39 -82 39 -122 0 l-29 -29 0 -741 0
-741 -632 -2 -633 -3 -33 -23 c-41 -30 -61 -68 -78 -151 -40 -190 -178 -341
-363 -395 -77 -23 -204 -21 -284 4 -124 38 -239 136 -298 252 -62 122 -59 37
-59 1738 0 1324 -3 1565 -15 1625 -19 93 -92 237 -155 308 l-52 57 1064 0
c1149 0 1132 0 1248 -54 69 -32 101 -33 137 -2 22 19 28 33 28 64 0 51 -19 72
-97 107 -141 64 -32 59 -1533 61 -1095 2 -1384 0 -1440 -11z m205 -175 c177
-29 332 -157 400 -335 22 -55 24 -79 28 -282 l4 -223 -506 0 -506 0 0 208 c0
230 7 271 61 372 67 126 197 224 339 254 81 18 99 18 180 6z m4163 -3622 c-50
-171 -182 -302 -352 -352 -49 -14 -176 -16 -1139 -16 l-1084 0 51 56 c76 86
125 188 155 326 l6 28 943 3 c518 1 1053 3 1189 5 l247 2 -16 -52z"/>
<path d="M1645 4075 c-31 -30 -34 -92 -6 -126 l19 -24 794 -3 c436 -1 803 0
816 3 63 15 85 103 37 150 l-24 25 -806 0 -806 0 -24 -25z"/>
<path d="M1641 3644 c-30 -38 -28 -94 5 -125 l26 -24 628 0 628 0 26 24 c35
33 36 98 3 129 l-23 22 -636 0 -637 0 -20 -26z"/>
<path d="M1665 3238 c-52 -30 -62 -102 -20 -143 l24 -25 456 0 456 0 24 25
c38 37 35 95 -6 129 l-31 26 -441 0 c-314 -1 -448 -4 -462 -12z"/>
<path d="M1645 2795 c-31 -30 -34 -92 -6 -126 l19 -24 281 -3 282 -3 29 30
c32 31 38 63 19 104 -20 44 -44 47 -330 47 l-270 0 -24 -25z"/>
</g>
</svg>
