<?xml version="1.0" standalone="no"?>
<!DOCTYPE svg PUBLIC "-//W3C//DTD SVG 20010904//EN"
 "http://www.w3.org/TR/2001/REC-SVG-20010904/DTD/svg10.dtd">
<svg version="1.0" xmlns="http://www.w3.org/2000/svg"
 width="512.000000pt" height="512.000000pt" viewBox="0 0 512.000000 512.000000"
 preserveAspectRatio="xMidYMid meet">
<metadata>
Created by potrace 1.16, written by Peter Selinger 2001-2019
</metadata>
<g transform="translate(0.000000,512.000000) scale(0.100000,-0.100000)"
fill="#000000" stroke="none">
<path d="M424 4856 c-18 -14 -19 -31 -22 -310 l-3 -296 -64 0 c-53 0 -66 -3
-75 -19 -29 -55 5 -91 87 -91 l53 0 0 -300 0 -300 -53 0 c-82 0 -116 -36 -87
-91 9 -16 22 -19 75 -19 l65 0 0 -305 0 -305 -58 0 c-64 0 -92 -18 -92 -57 0
-35 31 -53 93 -53 l57 0 0 -305 0 -305 -65 0 c-53 0 -66 -3 -75 -19 -29 -55 5
-91 87 -91 l53 0 0 -300 0 -300 -55 0 c-78 0 -113 -37 -85 -91 9 -16 22 -19
75 -19 l65 0 0 -357 c0 -268 3 -364 13 -383 12 -25 14 -25 155 -28 l142 -3 0
-107 c0 -161 -14 -152 235 -152 172 0 206 2 219 16 13 12 16 39 16 130 l0 114
175 0 175 0 0 -113 c0 -98 3 -116 18 -130 17 -16 80 -17 707 -17 l688 0 107
105 106 105 307 0 c256 0 314 3 345 16 47 19 88 58 115 109 l22 40 3 1758 2
1757 210 0 c197 0 211 1 230 20 19 19 20 33 20 219 0 168 -2 202 -16 215 -13
14 -48 16 -230 16 l-214 0 0 23 c0 53 -31 125 -70 165 -78 78 61 72 -1785 72
-1410 0 -1654 -2 -1671 -14z m3335 -114 c41 -20 67 -55 75 -99 l6 -33 -295 0
c-254 0 -296 -2 -309 -16 -14 -13 -16 -47 -16 -219 0 -199 0 -204 22 -219 19
-14 66 -16 310 -16 l288 0 -2 -1742 c-3 -1693 -4 -1744 -22 -1771 -36 -54 -54
-57 -313 -57 l-238 0 85 85 85 85 3 684 c2 662 2 684 -17 707 l-19 24 -922 0
c-901 0 -922 0 -936 -19 -12 -17 -14 -138 -14 -768 l0 -748 -505 0 -505 0 0
330 0 330 83 0 84 0 29 -57 c24 -46 40 -65 84 -90 118 -71 270 -29 332 91 29
56 30 155 1 211 -91 174 -339 174 -423 0 l-22 -45 -84 0 -84 0 0 300 0 300 85
0 85 0 13 -33 c65 -154 275 -193 388 -70 89 95 87 236 -5 327 -53 53 -99 69
-181 64 -89 -5 -150 -44 -189 -121 l-29 -57 -84 0 -83 0 0 305 0 305 85 0 85
0 16 -40 c21 -51 95 -117 148 -131 94 -26 207 13 259 88 127 185 -42 423 -258
363 -57 -16 -128 -78 -149 -130 l-16 -40 -85 0 -85 0 0 305 0 305 83 0 84 0
29 -57 c22 -43 41 -65 78 -88 45 -27 58 -30 132 -30 75 0 86 3 125 30 24 17
57 52 73 79 26 41 30 58 30 115 -1 140 -95 234 -235 235 -53 0 -74 -5 -112
-27 -49 -29 -89 -74 -106 -120 -10 -27 -12 -27 -96 -27 l-85 0 0 300 0 300 84
0 84 0 22 -45 c55 -114 202 -164 315 -108 83 42 128 117 129 214 0 57 -4 74
-30 115 -16 27 -49 62 -73 79 -37 26 -53 30 -119 33 -72 3 -80 1 -132 -30 -43
-26 -60 -45 -84 -90 l-29 -58 -84 0 -83 0 0 255 0 255 1603 0 c1505 0 1604 -1
1636 -18z m541 -367 l0 -125 -485 0 -485 0 0 125 0 125 485 0 485 0 0 -125z
m-3316 -74 c39 -26 55 -57 56 -108 0 -35 -6 -48 -35 -78 -29 -28 -43 -35 -75
-35 -53 0 -87 17 -111 57 -65 105 63 231 165 164z m20 -735 c30 -28 36 -40 36
-76 0 -81 -58 -137 -133 -127 -85 12 -133 108 -88 180 25 41 53 55 108 56 34
1 48 -5 77 -33z m-40 -690 c49 -20 76 -60 76 -113 0 -38 -6 -51 -33 -78 -19
-19 -46 -37 -61 -41 -64 -16 -146 52 -146 120 0 43 34 94 73 111 41 18 50 18
91 1z m10 -721 c41 -20 66 -63 66 -115 0 -34 -6 -48 -34 -76 -27 -27 -42 -34
-75 -34 -54 0 -87 17 -112 57 -47 76 9 180 99 182 13 1 38 -6 56 -14z m2346
-725 l0 -610 -220 0 c-207 0 -220 -1 -230 -19 -6 -12 -10 -104 -10 -230 l0
-211 -610 0 -610 0 0 840 0 840 840 0 840 0 0 -610z m-2315 -15 c28 -29 35
-43 35 -75 0 -53 -17 -87 -57 -111 -72 -45 -168 3 -180 88 -10 74 45 132 124
133 35 0 48 -6 78 -35z m2225 -708 c0 -1 -58 -61 -130 -132 l-130 -130 0 133
0 132 130 0 c72 0 130 -1 130 -3z m-2160 -272 l0 -75 -125 0 -125 0 0 75 0 75
125 0 125 0 0 -75z"/>
<path d="M1442 4238 c-20 -20 -14 -65 10 -82 20 -14 108 -16 751 -16 483 0
735 3 748 10 22 12 27 68 7 88 -17 17 -1499 17 -1516 0z"/>
<path d="M1452 3884 c-30 -20 -30 -68 0 -88 20 -14 108 -16 748 -16 799 0 770
-2 770 60 0 62 29 60 -770 60 -640 0 -728 -2 -748 -16z"/>
<path d="M1452 3524 c-24 -17 -30 -62 -10 -82 17 -17 1499 -17 1516 0 20 20
15 76 -7 88 -13 7 -265 10 -748 10 -643 0 -731 -2 -751 -16z"/>
<path d="M1806 3164 c-19 -18 -21 -65 -4 -82 9 -9 219 -12 884 -12 780 0 874
2 888 16 21 21 20 57 -2 77 -17 16 -93 17 -885 17 -774 0 -867 -2 -881 -16z"/>
<path d="M1808 2809 c-21 -12 -24 -69 -6 -87 9 -9 219 -12 883 -12 832 0 873
1 888 18 22 24 21 55 -1 75 -17 16 -92 17 -883 17 -568 -1 -870 -4 -881 -11z"/>
<path d="M1802 2448 c-17 -17 -15 -64 4 -82 14 -14 108 -16 883 -16 828 0 869
1 884 18 21 23 22 56 1 76 -14 14 -108 16 -888 16 -665 0 -875 -3 -884 -12z"/>
<path d="M3095 1736 c-11 -8 -54 -82 -95 -165 l-74 -150 -52 138 c-70 187 -68
183 -112 179 -37 -3 -37 -4 -112 -150 -41 -80 -78 -149 -81 -152 -3 -3 -29 58
-58 136 -29 79 -58 149 -64 156 -6 8 -25 12 -46 10 -36 -3 -36 -4 -111 -155
-41 -84 -77 -153 -80 -153 -3 0 -27 60 -54 133 -61 168 -67 177 -111 177 l-35
0 -110 -220 c-60 -121 -110 -231 -110 -245 0 -35 39 -59 74 -46 20 8 41 42 98
156 40 80 75 145 79 145 3 0 25 -53 49 -117 53 -145 65 -170 89 -183 42 -22
63 1 141 159 41 83 77 147 81 143 4 -4 31 -72 60 -151 44 -117 57 -145 77
-152 43 -16 67 12 146 168 l73 147 32 -85 c17 -46 43 -115 57 -152 28 -74 57
-97 95 -77 19 11 239 436 239 463 0 38 -54 65 -85 43z"/>
<path d="M1808 1069 c-21 -12 -24 -69 -6 -87 9 -9 112 -12 400 -12 l388 0 17
26 c15 24 15 29 2 53 l-15 26 -384 2 c-249 2 -391 -1 -402 -8z"/>
<path d="M4272 3664 c-29 -14 -64 -41 -78 -60 -56 -73 -54 -11 -54 -1508 0
-894 4 -1394 10 -1417 14 -52 49 -99 96 -132 54 -38 152 -48 217 -23 54 20
104 68 128 121 18 38 19 102 19 1308 l0 1267 38 0 c49 0 87 -38 101 -100 6
-27 11 -222 11 -495 0 -337 3 -454 12 -463 20 -20 76 -15 88 7 6 13 10 183 10
484 0 501 -2 518 -54 598 -33 50 -91 79 -156 79 l-50 0 0 93 c0 109 -17 154
-78 209 -71 64 -171 76 -260 32z m153 -98 c19 -8 44 -30 55 -48 19 -31 20 -50
20 -390 l0 -358 -125 0 -125 0 0 338 c0 189 4 352 10 371 16 55 65 99 113 100
10 1 33 -5 52 -13z m75 -1031 l0 -125 -125 0 -125 0 0 125 0 125 125 0 125 0
0 -125z m0 -1027 c0 -774 -1 -794 -20 -826 -57 -93 -189 -73 -219 34 -7 26
-11 291 -11 812 l0 772 125 0 125 0 0 -792z"/>
</g>
</svg>
