<?xml version="1.0" standalone="no"?>
<!DOCTYPE svg PUBLIC "-//W3C//DTD SVG 20010904//EN"
 "http://www.w3.org/TR/2001/REC-SVG-20010904/DTD/svg10.dtd">
<svg version="1.0" xmlns="http://www.w3.org/2000/svg"
 width="512.000000pt" height="512.000000pt" viewBox="0 0 512.000000 512.000000"
 preserveAspectRatio="xMidYMid meet">
<metadata>
Created by potrace 1.16, written by Peter Selinger 2001-2019
</metadata>
<g transform="translate(0.000000,512.000000) scale(0.100000,-0.100000)"
fill="#000000" stroke="none">
<path d="M583 4781 c-104 -38 -180 -107 -231 -211 l-27 -55 0 -1235 0 -1235
29 -60 c38 -77 114 -153 191 -191 59 -29 62 -29 257 -32 188 -3 197 -3 217 17
25 25 28 87 7 117 -13 17 -31 20 -183 25 -193 6 -233 18 -294 86 -68 75 -64 0
-64 1278 0 1158 0 1160 21 1205 25 54 64 94 119 124 l40 21 1885 0 c1579 0
1891 -2 1924 -14 56 -19 122 -84 143 -139 17 -44 18 -113 18 -1202 0 -953 -2
-1162 -14 -1194 -18 -53 -77 -115 -131 -140 -44 -21 -60 -21 -853 -26 -786 -5
-809 -6 -823 -24 -21 -30 -18 -92 6 -116 20 -20 29 -20 858 -18 l837 3 60 29
c77 38 153 114 191 191 l29 60 0 1235 0 1235 -29 60 c-38 77 -114 153 -191
191 l-60 29 -1940 2 c-1872 2 -1942 2 -1992 -16z"/>
<path d="M900 4140 c-13 -13 -20 -33 -20 -60 0 -27 7 -47 20 -60 20 -20 33
-20 1660 -20 1627 0 1640 0 1660 20 13 13 20 33 20 60 0 27 -7 47 -20 60 -20
20 -33 20 -1660 20 -1627 0 -1640 0 -1660 -20z"/>
<path d="M1540 3500 c-13 -13 -20 -33 -20 -60 0 -27 7 -47 20 -60 20 -20 33
-20 1020 -20 987 0 1000 0 1020 20 13 13 20 33 20 60 0 27 -7 47 -20 60 -20
20 -33 20 -1020 20 -987 0 -1000 0 -1020 -20z"/>
<path d="M3298 2702 c-172 -172 -178 -179 -178 -218 0 -53 31 -84 85 -84 34 0
46 8 136 97 l99 97 0 -77 c0 -94 16 -117 81 -117 39 0 48 6 140 97 l99 97 0
-77 c0 -119 -4 -117 240 -117 187 0 201 1 220 20 13 13 20 33 20 60 0 27 -7
47 -20 60 -18 18 -33 20 -160 20 l-140 0 0 140 c0 127 -2 142 -20 160 -14 14
-33 20 -61 20 -39 0 -48 -6 -140 -97 l-99 -97 0 77 c0 94 -16 117 -82 117 -42
0 -46 -4 -220 -178z"/>
<path d="M1840 2560 c-292 -30 -547 -250 -620 -536 -14 -53 -20 -111 -20 -184
0 -163 35 -278 126 -416 l34 -51 0 -507 c0 -493 1 -507 20 -526 13 -13 33 -20
58 -20 31 0 71 23 254 145 120 80 222 145 228 145 6 0 108 -65 228 -145 183
-122 223 -145 254 -145 25 0 45 7 58 20 19 19 20 33 20 528 l0 508 26 35 c43
58 94 168 115 247 26 103 26 262 -1 366 -39 153 -143 308 -270 401 -141 104
-329 153 -510 135z m219 -185 c172 -45 322 -182 383 -350 29 -82 36 -228 14
-316 -64 -252 -277 -419 -536 -419 -259 0 -472 167 -536 419 -22 88 -15 234
14 316 60 165 210 303 379 350 65 18 216 18 282 0z m-460 -1183 c189 -99 451
-98 650 2 l71 36 0 -336 0 -336 -27 18 c-16 9 -98 64 -183 121 -123 82 -162
103 -190 103 -28 0 -67 -21 -190 -103 -85 -57 -167 -112 -182 -121 l-28 -18 0
337 c0 185 3 335 8 333 4 -2 36 -18 71 -36z"/>
</g>
</svg>
