<?xml version="1.0" standalone="no"?>
<!DOCTYPE svg PUBLIC "-//W3C//DTD SVG 20010904//EN"
 "http://www.w3.org/TR/2001/REC-SVG-20010904/DTD/svg10.dtd">
<svg version="1.0" xmlns="http://www.w3.org/2000/svg"
 width="512.000000pt" height="512.000000pt" viewBox="0 0 512.000000 512.000000"
 preserveAspectRatio="xMidYMid meet">
<metadata>
Created by potrace 1.16, written by Peter Selinger 2001-2019
</metadata>
<g transform="translate(0.000000,512.000000) scale(0.100000,-0.100000)"
fill="#000000" stroke="none">
<path d="M2365 4454 c-146 -31 -297 -111 -412 -218 -90 -83 -149 -164 -202
-277 -126 -263 -112 -579 37 -834 55 -96 211 -258 290 -302 l53 -30 -45 -12
c-64 -16 -225 -86 -320 -139 -322 -181 -602 -519 -715 -862 l-21 -66 -182 -28
c-167 -27 -185 -31 -210 -57 l-28 -27 0 -315 c0 -301 1 -315 20 -340 11 -14
29 -28 39 -32 11 -3 70 3 133 14 234 41 396 55 638 55 358 1 623 -40 914 -140
88 -30 173 -58 188 -61 18 -3 72 11 157 41 335 117 589 160 966 160 253 0 376
-10 619 -50 82 -13 157 -22 167 -19 10 4 28 18 39 32 19 25 20 39 20 340 l0
315 -28 27 c-27 28 -78 39 -342 76 l-45 7 -28 78 c-80 226 -199 413 -377 591
-184 185 -386 312 -612 385 l-85 27 71 48 c138 92 264 248 327 404 45 113 61
203 61 340 -1 255 -98 477 -285 651 -118 109 -268 188 -419 218 -97 20 -288
20 -383 0z m424 -188 c239 -84 417 -279 476 -521 22 -89 23 -238 1 -330 -77
-326 -371 -559 -706 -559 -495 0 -847 492 -685 957 68 195 227 363 415 437
112 44 149 50 290 46 115 -3 146 -7 209 -30z m72 -1615 c372 -86 685 -301 891
-611 51 -77 131 -235 143 -280 l6 -25 -216 3 c-410 8 -719 -41 -1022 -160
l-103 -41 -103 41 c-298 118 -607 167 -1015 161 -122 -2 -222 -1 -222 2 0 27
100 225 153 304 231 344 585 564 1012 629 17 2 111 3 210 1 135 -3 202 -9 266
-24z m-941 -1106 c149 -24 354 -78 462 -122 l93 -38 3 -198 c1 -108 0 -197 -4
-197 -3 0 -40 12 -82 26 -419 140 -964 179 -1474 104 -73 -11 -134 -20 -135
-20 -2 0 -3 90 -3 199 0 182 2 200 18 205 27 8 288 46 387 55 146 15 612 6
735 -14z m1995 15 c111 -10 375 -47 408 -56 15 -5 17 -24 17 -206 l0 -200 -32
6 c-73 15 -265 36 -418 47 -389 27 -837 -25 -1160 -135 -41 -14 -78 -26 -82
-26 -5 0 -8 88 -8 196 l0 195 53 23 c146 65 384 127 580 150 135 17 490 20
642 6z"/>
</g>
</svg>
