<?xml version="1.0" standalone="no"?>
<!DOCTYPE svg PUBLIC "-//W3C//DTD SVG 20010904//EN"
 "http://www.w3.org/TR/2001/REC-SVG-20010904/DTD/svg10.dtd">
<svg version="1.0" xmlns="http://www.w3.org/2000/svg"
 width="512.000000pt" height="512.000000pt" viewBox="0 0 512.000000 512.000000"
 preserveAspectRatio="xMidYMid meet">
<metadata>
Created by potrace 1.16, written by Peter Selinger 2001-2019
</metadata>
<g transform="translate(0.000000,512.000000) scale(0.100000,-0.100000)"
fill="#000000" stroke="none">
<path d="M273 5023 c-17 -10 -42 -31 -55 -48 l-23 -30 0 -2045 0 -2045 23 -33
c52 -72 -49 -67 1294 -70 l1206 -2 4 -228 c3 -205 5 -231 24 -272 29 -62 67
-105 123 -138 41 -24 58 -27 152 -30 105 -4 106 -4 127 23 21 27 22 36 22 326
0 190 4 299 10 299 5 0 58 -16 117 -36 136 -45 329 -139 503 -245 74 -45 148
-88 163 -96 97 -51 223 -7 268 92 16 35 19 68 19 251 l0 211 43 17 c64 24 122
78 154 144 37 75 40 191 6 263 -28 61 -89 121 -152 151 l-51 23 0 220 c0 209
-1 223 -22 265 -13 24 -40 58 -61 74 -35 28 -46 31 -110 31 l-72 0 -216 -122
c-119 -68 -219 -123 -223 -123 -3 0 -6 579 -6 1288 0 808 -4 1300 -10 1322 -7
27 -74 99 -280 305 l-270 270 -1338 3 c-1260 2 -1339 1 -1369 -15z m2577 -348
c0 -231 6 -261 62 -295 30 -18 50 -20 246 -20 l212 0 0 -1299 0 -1299 -82 -30
c-167 -60 -178 -62 -387 -62 -108 0 -228 -5 -267 -10 -176 -23 -316 -139 -373
-308 -40 -118 -20 -290 44 -384 14 -20 25 -39 25 -42 0 -4 -443 -6 -985 -6
l-985 0 0 1980 0 1980 1245 0 1245 0 0 -205z m285 -35 l110 -110 -113 0 -112
0 0 110 c0 61 1 110 3 110 1 0 52 -49 112 -110z m943 -3416 c2 -799 8 -749
-78 -694 l-50 32 0 658 0 659 43 24 c23 14 51 25 62 24 20 -2 20 -10 23 -703z
m-298 -2 l0 -559 -125 64 c-146 74 -272 125 -393 157 l-87 23 0 303 0 303 85
27 c105 32 265 103 407 180 59 32 109 59 111 59 1 1 2 -250 2 -557z m-780 -13
l0 -291 -187 4 c-212 5 -233 10 -310 80 -70 65 -88 107 -88 208 0 96 13 129
74 193 75 79 130 94 354 96 l157 1 0 -291z m0 -709 c0 -272 0 -272 -55 -228
-49 38 -55 69 -55 283 l0 195 55 0 55 0 0 -250z"/>
<path d="M812 4577 c-28 -29 -29 -86 -3 -118 l19 -24 769 -3 c422 -1 778 0
791 3 62 15 85 100 39 143 l-23 22 -785 0 -786 0 -21 -23z"/>
<path d="M816 4119 c-21 -16 -26 -29 -26 -64 0 -35 5 -48 26 -64 27 -21 30
-21 1040 -21 732 0 1020 3 1038 11 50 23 58 98 14 139 -22 20 -31 20 -1044 20
-1018 0 -1021 0 -1048 -21z"/>
<path d="M833 3670 c-47 -19 -59 -101 -20 -138 l23 -22 1026 0 c1149 0 1062
-6 1075 72 5 32 1 41 -25 68 l-30 30 -1014 -1 c-558 0 -1023 -4 -1035 -9z"/>
<path d="M810 3190 c-13 -13 -20 -33 -20 -60 0 -27 7 -47 20 -60 20 -20 33
-20 1054 -20 l1035 0 20 26 c27 34 27 74 0 108 l-20 26 -1035 0 c-1021 0
-1034 0 -1054 -20z"/>
<path d="M1248 2850 c-75 -22 -126 -92 -135 -186 l-6 -54 -202 0 c-193 0 -203
-1 -236 -23 -64 -43 -70 -68 -67 -283 l3 -191 33 -52 32 -52 0 -258 c0 -257 0
-257 26 -309 19 -39 38 -59 72 -80 l47 -27 660 0 c650 0 661 0 700 21 22 11
54 40 70 63 l30 43 5 276 5 277 30 44 30 44 3 201 c4 305 4 306 -305 306
l-203 0 0 45 c0 84 -42 153 -115 186 -35 16 -66 18 -245 18 -113 0 -217 -4
-232 -9z m410 -172 c7 -7 12 -25 12 -40 l0 -28 -195 0 c-190 0 -195 0 -195 21
0 11 5 29 10 40 10 18 23 19 183 19 121 0 177 -4 185 -12z m-678 -310 c0 -86
19 -132 69 -165 34 -23 35 -23 425 -23 373 0 393 1 424 20 54 33 72 74 72 163
l0 77 105 0 105 0 0 -139 c0 -120 -2 -141 -19 -162 -38 -49 -170 -95 -336
-118 -126 -18 -141 -16 -177 25 -46 52 -96 74 -170 74 -77 0 -131 -23 -175
-73 -39 -45 -58 -46 -225 -17 -147 25 -223 53 -270 100 l-38 38 0 136 0 136
105 0 105 0 0 -72z m820 22 l0 -50 -325 0 -325 0 0 50 0 50 325 0 325 0 0 -50z
m-870 -506 c66 -17 242 -44 287 -44 28 0 35 -5 48 -37 20 -48 59 -89 110 -116
51 -26 145 -28 197 -3 49 24 105 82 119 123 9 29 15 33 44 33 54 0 238 29 310
49 l65 18 0 -191 c0 -136 -4 -196 -12 -204 -17 -17 -1229 -17 -1246 0 -9 9
-12 68 -12 206 0 181 1 194 18 187 9 -3 42 -13 72 -21z"/>
<path d="M4537 1691 c-62 -63 -77 -85 -77 -109 0 -47 39 -86 85 -86 33 0 45 8
116 81 65 66 79 86 79 112 0 46 -38 81 -88 81 -35 0 -46 -7 -115 -79z"/>
<path d="M4635 1265 c-17 -16 -25 -35 -25 -60 0 -25 8 -44 25 -60 23 -24 31
-25 135 -25 104 0 112 1 135 25 17 16 25 35 25 60 0 25 -8 44 -25 60 -23 24
-31 25 -135 25 -104 0 -112 -1 -135 -25z"/>
<path d="M4479 910 c-23 -13 -42 -65 -35 -93 8 -33 159 -177 186 -177 51 0 89
38 90 89 0 30 -11 45 -78 113 -68 67 -83 78 -113 78 -19 0 -41 -5 -50 -10z"/>
</g>
</svg>
