<?xml version="1.0" standalone="no"?>
<!DOCTYPE svg PUBLIC "-//W3C//DTD SVG 20010904//EN"
 "http://www.w3.org/TR/2001/REC-SVG-20010904/DTD/svg10.dtd">
<svg version="1.0" xmlns="http://www.w3.org/2000/svg"
 width="512.000000pt" height="512.000000pt" viewBox="0 0 512.000000 512.000000"
 preserveAspectRatio="xMidYMid meet">
<metadata>
Created by potrace 1.16, written by Peter Selinger 2001-2019
</metadata>
<g transform="translate(0.000000,512.000000) scale(0.100000,-0.100000)"
fill="#000000" stroke="none">
<path d="M1777 3276 c-400 -112 -735 -210 -744 -217 -31 -26 -43 -76 -43 -179
0 -82 3 -103 18 -118 10 -10 155 -56 371 -116 375 -104 390 -106 406 -56 16
50 -9 62 -251 129 -126 35 -238 67 -249 71 -25 9 -51 1 700 209 l580 161 454
-128 454 -127 2 -107 1 -108 -70 -22 c-70 -23 -71 -23 -74 -60 -5 -56 24 -66
118 -43 69 17 71 17 85 -1 36 -49 75 -122 80 -149 5 -26 1 -33 -26 -50 -58
-36 -72 -66 -79 -167 -4 -51 -20 -173 -35 -271 -21 -128 -26 -185 -19 -205 32
-94 348 -113 430 -25 30 33 30 52 -2 233 -14 80 -28 193 -33 253 -8 119 -19
143 -84 186 -25 17 -37 32 -37 48 0 31 -23 86 -62 146 -17 26 -28 50 -26 52 3
3 79 26 169 50 271 75 298 84 309 105 5 10 10 62 10 115 0 106 -14 154 -52
178 -12 8 -342 104 -733 213 -513 143 -728 199 -775 201 -59 3 -133 -16 -793
-201z m723 34 l0 -49 -67 -20 c-38 -11 -329 -92 -648 -181 -319 -89 -602 -167
-628 -175 l-48 -14 3 52 3 52 685 191 c377 106 688 192 693 193 4 1 7 -21 7
-49z m588 -81 l443 -124 -6 -35 c-4 -19 -10 -40 -13 -46 -6 -10 -382 89 -839
221 l-53 16 0 50 c0 37 4 50 13 47 6 -3 211 -61 455 -129z m750 -210 l182 -51
0 -50 c0 -42 -2 -49 -17 -44 -10 3 -69 19 -131 37 -106 29 -114 30 -137 15
-27 -18 -33 -52 -12 -78 6 -9 38 -23 71 -33 32 -9 57 -18 55 -20 -9 -8 -254
-73 -259 -68 -11 10 -2 141 14 203 32 125 37 140 44 140 4 0 89 -23 190 -51z
m-83 -994 c34 -184 42 -251 34 -260 -6 -5 -55 -10 -109 -10 -54 0 -103 5 -109
10 -8 9 0 76 34 260 5 30 5 30 75 30 70 0 70 0 75 -30z"/>
<path d="M2435 2869 c-168 -11 -455 -78 -483 -112 -6 -7 -46 -201 -88 -430
-72 -392 -75 -419 -60 -436 34 -37 110 -34 253 10 76 24 97 52 69 94 -21 31
-51 32 -135 4 -34 -12 -65 -19 -68 -16 -6 7 6 99 15 112 4 6 48 20 97 33 120
30 221 29 344 -3 127 -33 233 -33 360 0 122 32 215 32 341 1 l95 -23 11 -59
c7 -33 11 -60 10 -61 -1 -2 -45 8 -97 22 -129 34 -251 34 -374 0 -115 -32
-226 -33 -320 -4 -86 26 -124 27 -141 4 -37 -50 -9 -80 101 -110 125 -34 256
-34 380 0 118 32 204 32 329 0 55 -14 124 -25 161 -25 101 0 101 -21 15 452
-40 222 -79 413 -87 425 -24 41 -280 108 -449 118 -49 3 -107 7 -129 9 -22 1
-89 -1 -150 -5z m440 -138 c79 -19 184 -49 193 -56 3 -3 82 -424 82 -441 0 -8
-23 -5 -67 8 -105 30 -242 28 -373 -7 -88 -23 -117 -27 -185 -22 -44 3 -109
16 -145 27 -88 29 -255 30 -352 2 -38 -11 -68 -18 -68 -16 0 2 18 101 40 220
22 119 40 220 40 224 0 10 141 50 255 71 139 26 448 20 580 -10z"/>
</g>
</svg>
