<?xml version="1.0" standalone="no"?>
<!DOCTYPE svg PUBLIC "-//W3C//DTD SVG 20010904//EN"
 "http://www.w3.org/TR/2001/REC-SVG-20010904/DTD/svg10.dtd">
<svg version="1.0" xmlns="http://www.w3.org/2000/svg"
 width="512.000000pt" height="512.000000pt" viewBox="0 0 512.000000 512.000000"
 preserveAspectRatio="xMidYMid meet">
<metadata>
Created by potrace 1.16, written by Peter Selinger 2001-2019
</metadata>
<g transform="translate(0.000000,512.000000) scale(0.100000,-0.100000)"
fill="#000000" stroke="none">
<path d="M3015 4954 c-190 -32 -387 -110 -554 -221 -95 -63 -270 -232 -316
-305 -16 -26 -40 -51 -52 -57 -13 -6 -37 -31 -55 -56 -24 -34 -36 -43 -52 -40
-72 17 -435 79 -616 106 -150 22 -232 29 -270 25 -121 -14 -262 -112 -322
-223 -56 -103 -263 -881 -393 -1478 -127 -582 -295 -1538 -295 -1673 0 -158
88 -311 217 -379 114 -60 947 -265 1533 -377 329 -63 714 -126 770 -126 161 1
329 85 427 215 104 138 137 236 243 732 136 631 270 1191 471 1963 58 222 62
242 62 350 0 93 -4 126 -22 174 -30 83 -73 146 -143 211 -64 59 -121 93 -215
124 -108 37 -598 167 -806 215 -24 6 -26 9 -16 28 6 11 8 37 5 58 -6 36 -3 41
44 83 155 139 326 207 525 207 195 0 345 -60 476 -190 62 -61 84 -92 122 -170
52 -109 69 -165 132 -453 76 -344 129 -462 288 -632 l65 -70 -59 -116 c-66
-133 -131 -243 -309 -524 -242 -382 -352 -593 -419 -800 -65 -198 -76 -267
-75 -460 1 -150 4 -181 27 -269 61 -227 192 -413 348 -492 137 -69 336 -84
511 -40 480 122 760 596 735 1245 -11 296 -74 568 -199 861 -108 252 -206 414
-331 546 l-78 83 34 98 c119 341 125 643 21 946 -160 462 -561 806 -1026 882
-113 18 -324 18 -433 -1z m452 -128 c232 -49 427 -160 601 -340 326 -338 430
-769 296 -1231 -41 -142 -38 -140 -100 -71 -113 127 -168 259 -235 569 -57
266 -81 346 -141 467 -44 90 -63 117 -137 191 -71 71 -102 94 -181 132 -138
68 -228 89 -380 90 -249 1 -448 -80 -638 -257 l-67 -62 -50 19 c-27 11 -77 27
-110 37 l-60 17 95 94 c149 147 301 239 500 303 58 19 139 39 180 45 41 6 86
13 100 15 48 9 256 -3 327 -18z m-2097 -570 c214 -33 545 -91 583 -102 13 -4
17 -16 17 -48 l0 -43 -52 9 c-122 20 -251 -29 -284 -108 -36 -87 -1 -161 104
-213 63 -32 267 -86 522 -137 185 -38 238 -45 296 -41 117 9 195 63 209 145
14 86 -44 149 -177 191 l-76 24 19 41 c10 22 22 42 27 44 12 4 179 -36 417
-99 307 -81 424 -118 465 -145 74 -49 130 -163 130 -264 0 -88 -176 -973 -315
-1585 -147 -645 -341 -1398 -381 -1477 -47 -93 -138 -161 -234 -174 -71 -9
-773 115 -1275 227 -403 90 -934 228 -993 258 -77 40 -143 141 -157 241 -10
68 116 832 225 1365 138 672 386 1648 446 1753 55 95 136 149 254 171 3 0 106
-15 230 -33z m942 -12 c66 -21 150 -56 165 -69 5 -4 -79 -189 -98 -216 -54
-76 -228 -56 -271 31 -24 46 -23 127 1 191 38 99 64 107 203 63z m-332 -309
c8 -3 27 -23 42 -44 60 -87 238 -128 357 -82 l55 20 90 -30 c50 -16 96 -35
103 -41 21 -17 15 -35 -14 -46 -65 -26 -98 -23 -323 23 -354 72 -504 116 -539
159 -11 13 -8 18 21 36 28 19 44 21 113 17 44 -3 87 -8 95 -12z m2546 -1226
c165 -246 310 -633 360 -959 24 -154 24 -429 0 -559 -47 -257 -144 -451 -298
-596 -136 -128 -326 -205 -505 -205 -210 0 -368 103 -467 303 -66 134 -90 241
-90 407 -1 334 109 601 504 1225 151 239 221 358 285 483 l47 94 50 -49 c27
-26 78 -91 114 -144z"/>
<path d="M1016 4157 c-19 -14 -75 -239 -76 -304 0 -61 86 -85 110 -30 6 12 19
62 29 110 11 49 22 91 24 94 3 3 40 -2 82 -11 96 -20 110 -20 129 0 23 22 21
81 -3 94 -20 10 -238 60 -264 60 -7 0 -21 -6 -31 -13z"/>
<path d="M1748 3465 c-350 -67 -631 -333 -728 -690 -31 -114 -39 -329 -15
-445 63 -312 267 -561 566 -691 129 -56 219 -79 334 -86 426 -25 832 268 961
692 25 82 28 104 28 260 1 194 -10 254 -75 393 -52 112 -111 193 -209 285
-205 193 -411 284 -660 292 -84 3 -150 0 -202 -10z m302 -119 c220 -40 438
-185 566 -378 158 -237 178 -547 54 -805 -57 -117 -200 -289 -244 -293 -5 -1
-17 23 -26 52 -91 295 -405 502 -694 459 -85 -12 -260 -68 -335 -105 -25 -13
-77 -44 -113 -69 l-67 -44 -19 46 c-45 103 -57 170 -56 316 0 122 4 151 27
228 32 104 74 190 132 272 173 244 485 373 775 321z m-124 -1107 c171 -55 321
-215 367 -392 l16 -59 -65 -29 c-134 -61 -294 -81 -442 -55 -185 32 -322 104
-455 238 l-77 79 49 42 c69 59 197 135 278 164 121 44 218 47 329 12z"/>
<path d="M1920 3075 c-104 -32 -180 -138 -180 -250 0 -162 140 -285 310 -273
152 11 253 117 252 263 -1 84 -24 136 -89 195 -82 75 -185 98 -293 65z"/>
<path d="M936 1488 c-21 -29 -20 -51 2 -76 14 -17 132 -45 647 -156 347 -75
636 -136 643 -136 20 0 52 39 52 63 0 13 -9 32 -19 41 -14 13 -208 59 -641
152 -342 74 -633 134 -646 134 -12 0 -30 -10 -38 -22z"/>
<path d="M823 970 c-43 -17 -40 -101 4 -113 99 -29 872 -187 890 -182 41 10
53 76 19 104 -9 8 -437 104 -871 195 -11 2 -30 0 -42 -4z"/>
<path d="M2717 758 c-10 -8 -25 -54 -40 -123 -27 -125 -14 -116 -139 -95 -72
13 -79 12 -98 -5 -25 -22 -26 -67 -2 -87 9 -9 74 -28 145 -43 172 -36 163 -43
206 159 32 147 33 157 17 181 -18 28 -61 34 -89 13z"/>
</g>
</svg>
