<?xml version="1.0" standalone="no"?>
<!DOCTYPE svg PUBLIC "-//W3C//DTD SVG 20010904//EN"
 "http://www.w3.org/TR/2001/REC-SVG-20010904/DTD/svg10.dtd">
<svg version="1.0" xmlns="http://www.w3.org/2000/svg"
 width="512.000000pt" height="512.000000pt" viewBox="0 0 512.000000 512.000000"
 preserveAspectRatio="xMidYMid meet">
<metadata>
Created by potrace 1.16, written by Peter Selinger 2001-2019
</metadata>
<g transform="translate(0.000000,512.000000) scale(0.100000,-0.100000)"
fill="#000000" stroke="none">
<path d="M1057 5022 c-12 -13 -17 -37 -17 -80 l0 -62 -140 0 c-127 0 -142 -2
-160 -20 -27 -27 -28 -100 -2 -123 15 -14 42 -17 160 -17 l142 0 0 -85 c0 -81
-1 -86 -24 -95 -43 -16 -104 -79 -122 -125 -26 -69 -17 -169 21 -231 88 -141
322 -141 410 0 38 62 47 162 21 231 -18 46 -79 109 -122 125 -23 9 -24 14 -24
95 l0 85 400 0 400 0 0 -85 c0 -81 -1 -86 -24 -95 -43 -16 -104 -79 -122 -125
-26 -69 -17 -169 21 -231 88 -141 322 -141 410 0 38 62 47 162 21 231 -18 46
-79 109 -122 125 -23 9 -24 14 -24 95 l0 85 400 0 400 0 0 -85 c0 -81 -1 -86
-24 -95 -43 -16 -104 -79 -122 -125 -26 -69 -17 -169 21 -231 88 -141 322
-141 410 0 38 62 47 162 21 231 -18 46 -79 109 -122 125 -23 9 -24 14 -24 95
l0 85 400 0 400 0 0 -85 c0 -81 -1 -86 -24 -95 -43 -16 -104 -79 -122 -125
-11 -31 -15 -65 -12 -113 5 -94 42 -155 117 -194 115 -60 263 -26 326 76 38
62 47 162 21 231 -18 46 -79 109 -122 125 -23 9 -24 14 -24 95 l0 85 355 0
c406 0 416 -2 434 -67 7 -23 11 -171 11 -385 l0 -348 -223 0 c-256 0 -257 0
-257 -82 0 -77 3 -78 258 -78 l222 0 0 -1434 0 -1434 -57 15 c-175 45 -326
184 -384 351 -11 31 -24 92 -29 134 -5 43 -14 87 -20 98 -17 32 -55 42 -93 26
-18 -8 -423 -298 -902 -645 l-870 -631 -1112 2 -1113 3 -27 28 -28 27 -3 345
-3 344 -26 21 c-33 26 -73 26 -107 -1 l-27 -21 3 -372 3 -373 30 -49 c19 -30
49 -60 79 -79 l49 -30 2301 -3 c1546 -2 2313 0 2336 7 49 14 119 76 141 125
18 39 19 126 19 2264 0 2437 5 2252 -61 2327 -66 75 -65 75 -506 75 l-393 0 0
63 c0 78 -16 97 -82 97 -62 0 -78 -20 -78 -98 l0 -62 -400 0 -400 0 0 63 c0
78 -16 97 -82 97 -62 0 -78 -20 -78 -98 l0 -62 -400 0 -400 0 0 63 c0 78 -16
97 -82 97 -62 0 -78 -20 -78 -98 l0 -62 -400 0 -400 0 0 63 c0 49 -4 68 -18
80 -26 24 -104 23 -125 -1z m115 -649 c23 -20 24 -80 1 -105 -20 -23 -80 -24
-105 -1 -23 20 -24 80 -1 105 20 23 80 24 105 1z m960 0 c23 -20 24 -80 1
-105 -20 -23 -80 -24 -105 -1 -23 20 -24 80 -1 105 20 23 80 24 105 1z m960 0
c23 -20 24 -80 1 -105 -20 -23 -80 -24 -105 -1 -23 20 -24 80 -1 105 20 23 80
24 105 1z m960 0 c23 -20 24 -80 1 -105 -20 -23 -80 -24 -105 -1 -23 20 -24
80 -1 105 20 23 80 24 105 1z m212 -3128 c4 -19 27 -74 51 -122 62 -123 149
-222 258 -291 l49 -31 -39 -10 c-844 -226 -1577 -420 -1579 -418 -3 3 1240
907 1247 907 4 0 10 -16 13 -35z m616 -735 c0 -216 -7 -243 -68 -259 -27 -8
-292 -10 -821 -9 l-782 3 828 222 c455 121 831 221 836 222 4 1 7 -80 7 -179z"/>
<path d="M212 4854 c-56 -28 -92 -67 -117 -127 -13 -32 -15 -214 -15 -1551 l0
-1515 22 -21 c29 -27 87 -27 116 0 l22 21 0 1049 0 1050 1958 0 1959 0 19 21
c25 27 25 91 0 118 l-19 21 -1959 0 -1959 0 3 370 3 370 28 27 c26 26 33 28
137 31 93 4 111 7 127 24 24 26 23 90 -1 117 -17 19 -30 21 -146 21 -116 0
-130 -2 -178 -26z"/>
<path d="M4417 4542 c-23 -26 -23 -104 1 -125 11 -10 40 -17 77 -19 l60 -3 3
-60 c4 -77 20 -95 82 -95 72 0 83 17 78 132 -3 106 -21 143 -82 172 -51 24
-197 23 -219 -2z"/>
<path d="M665 3583 c-44 -23 -65 -44 -86 -85 -17 -32 -19 -60 -19 -218 0 -147
3 -187 16 -213 23 -45 44 -66 86 -88 32 -17 60 -19 219 -19 177 0 184 1 225
25 26 15 54 43 69 69 24 41 25 48 25 225 0 159 -2 187 -19 219 -22 42 -43 63
-88 86 -46 23 -384 23 -428 -1z m355 -163 c18 -18 20 -33 20 -140 0 -107 -2
-122 -20 -140 -18 -18 -33 -20 -140 -20 -161 0 -160 -1 -160 160 0 107 2 122
20 140 18 18 33 20 140 20 107 0 122 -2 140 -20z"/>
<path d="M1785 3583 c-44 -23 -65 -44 -86 -85 -17 -32 -19 -60 -19 -218 0
-147 3 -187 16 -213 23 -45 44 -66 86 -88 32 -17 60 -19 219 -19 177 0 184 1
225 25 60 35 94 96 94 167 0 69 -18 88 -82 88 -50 0 -78 -21 -78 -58 0 -12 -9
-31 -20 -42 -18 -18 -33 -20 -140 -20 -161 0 -160 -1 -160 160 0 107 2 122 20
140 18 18 33 20 140 20 107 0 122 -2 140 -20 11 -11 20 -31 20 -43 0 -36 30
-57 82 -57 60 0 78 20 78 89 0 81 -35 138 -107 175 -46 23 -384 23 -428 -1z"/>
<path d="M2905 3583 c-44 -23 -65 -44 -86 -85 -17 -32 -19 -60 -19 -218 0
-147 3 -187 16 -213 23 -45 44 -66 86 -88 32 -17 60 -19 219 -19 177 0 184 1
225 25 26 15 54 43 69 69 24 41 25 48 25 225 0 159 -2 187 -19 219 -22 42 -43
63 -88 86 -46 23 -384 23 -428 -1z m355 -163 c18 -18 20 -33 20 -140 0 -107
-2 -122 -20 -140 -18 -18 -33 -20 -140 -20 -107 0 -122 2 -140 20 -18 18 -20
33 -20 140 0 107 2 122 20 140 18 18 33 20 140 20 107 0 122 -2 140 -20z"/>
<path d="M4025 3583 c-44 -23 -65 -44 -86 -85 -17 -32 -19 -60 -19 -218 0
-188 5 -213 49 -264 29 -33 88 -56 144 -56 68 0 87 18 87 82 0 50 -21 78 -58
78 -12 0 -31 9 -42 20 -18 18 -20 33 -20 140 0 107 2 122 20 140 18 18 33 20
140 20 107 0 122 -2 140 -20 18 -18 20 -33 20 -140 0 -107 -2 -122 -20 -140
-11 -11 -31 -20 -43 -20 -36 0 -57 -30 -57 -82 0 -60 20 -78 90 -78 69 0 130
35 165 94 24 41 25 48 25 225 0 159 -2 187 -19 219 -22 42 -43 63 -88 86 -46
23 -384 23 -428 -1z"/>
<path d="M665 2623 c-71 -37 -105 -94 -105 -176 0 -68 18 -87 82 -87 50 0 78
21 78 58 0 12 9 31 20 42 18 18 33 20 140 20 161 0 160 1 160 -160 0 -161 1
-160 -160 -160 -107 0 -122 2 -140 20 -11 11 -20 31 -20 43 0 36 -30 57 -82
57 -60 0 -78 -20 -78 -89 0 -79 35 -138 102 -172 32 -17 60 -19 219 -19 177 0
184 1 225 25 26 15 54 43 69 69 24 41 25 48 25 225 0 159 -2 187 -19 219 -22
42 -43 63 -88 86 -46 23 -384 23 -428 -1z"/>
<path d="M1785 2623 c-44 -23 -65 -44 -86 -85 -17 -32 -19 -60 -19 -218 0
-147 3 -187 16 -213 23 -45 44 -66 86 -88 32 -17 60 -19 219 -19 177 0 184 1
225 25 26 15 54 43 69 69 24 41 25 48 25 225 0 159 -2 187 -19 219 -22 42 -43
63 -88 86 -46 23 -384 23 -428 -1z m355 -163 c18 -18 20 -33 20 -140 0 -107
-2 -122 -20 -140 -18 -18 -33 -20 -140 -20 -107 0 -122 2 -140 20 -18 18 -20
33 -20 140 0 107 2 122 20 140 18 18 33 20 140 20 107 0 122 -2 140 -20z"/>
<path d="M2905 2623 c-44 -23 -65 -44 -86 -85 -17 -32 -19 -60 -19 -218 0
-147 3 -187 16 -213 23 -45 44 -66 86 -88 32 -17 60 -19 219 -19 177 0 184 1
225 25 26 15 54 43 69 69 24 41 25 48 25 225 0 159 -2 187 -19 219 -22 42 -43
63 -88 86 -46 23 -384 23 -428 -1z m355 -163 c18 -18 20 -33 20 -140 0 -107
-2 -122 -20 -140 -18 -18 -33 -20 -140 -20 -161 0 -160 -1 -160 160 0 107 2
122 20 140 18 18 33 20 140 20 107 0 122 -2 140 -20z"/>
<path d="M4025 2623 c-44 -23 -65 -44 -86 -85 -17 -32 -19 -60 -19 -218 0
-147 3 -187 16 -213 23 -45 44 -66 86 -88 32 -17 60 -19 219 -19 177 0 184 1
225 25 26 15 54 43 69 69 24 41 25 48 25 225 0 159 -2 187 -19 219 -22 42 -43
63 -88 86 -46 23 -384 23 -428 -1z m355 -163 c18 -18 20 -33 20 -140 0 -107
-2 -122 -20 -140 -18 -18 -33 -20 -140 -20 -161 0 -160 -1 -160 160 0 107 2
122 20 140 18 18 33 20 140 20 107 0 122 -2 140 -20z"/>
<path d="M665 1663 c-44 -23 -65 -44 -86 -85 -17 -32 -19 -60 -19 -218 0 -147
3 -187 16 -213 23 -45 44 -66 86 -88 32 -17 60 -19 219 -19 177 0 184 1 225
25 26 15 54 43 69 69 24 41 25 48 25 225 0 159 -2 187 -19 219 -22 42 -43 63
-88 86 -46 23 -384 23 -428 -1z m355 -163 c18 -18 20 -33 20 -140 0 -107 -2
-122 -20 -140 -18 -18 -33 -20 -140 -20 -107 0 -122 2 -140 20 -18 18 -20 33
-20 140 0 107 2 122 20 140 18 18 33 20 140 20 107 0 122 -2 140 -20z"/>
<path d="M1785 1663 c-44 -23 -65 -44 -86 -85 -17 -32 -19 -60 -19 -218 0
-147 3 -187 16 -213 23 -45 44 -66 86 -88 32 -17 60 -19 219 -19 177 0 184 1
225 25 26 15 54 43 69 69 24 41 25 48 25 225 0 159 -2 187 -19 219 -22 42 -43
63 -88 86 -46 23 -384 23 -428 -1z m355 -163 c18 -18 20 -33 20 -140 0 -107
-2 -122 -20 -140 -18 -18 -33 -20 -140 -20 -107 0 -122 2 -140 20 -18 18 -20
33 -20 140 0 107 2 122 20 140 18 18 33 20 140 20 107 0 122 -2 140 -20z"/>
<path d="M2905 1663 c-44 -23 -65 -44 -86 -85 -17 -32 -19 -60 -19 -218 0
-147 3 -187 16 -213 23 -45 44 -66 86 -88 32 -17 60 -19 219 -19 177 0 184 1
225 25 26 15 54 43 69 69 24 41 25 48 25 225 0 159 -2 187 -19 219 -35 68 -93
102 -174 102 -68 0 -87 -18 -87 -82 0 -50 21 -78 58 -78 12 0 31 -9 42 -20 18
-18 20 -33 20 -140 0 -161 1 -160 -160 -160 -161 0 -160 -1 -160 160 0 107 2
122 20 140 11 11 31 20 43 20 36 0 57 30 57 82 0 61 -20 78 -91 78 -30 -1 -67
-8 -84 -17z"/>
<path d="M97 1422 c-13 -15 -17 -39 -17 -115 0 -91 1 -96 26 -116 34 -27 74
-27 108 0 25 20 26 25 26 118 0 82 -3 101 -18 114 -26 24 -104 23 -125 -1z"/>
<path d="M417 862 c-14 -16 -17 -44 -17 -184 0 -155 1 -167 23 -198 48 -71 60
-75 249 -78 200 -4 208 -1 208 78 0 74 -12 80 -166 80 -88 0 -134 4 -142 12
-8 8 -12 55 -12 143 0 115 -2 134 -18 148 -26 24 -104 23 -125 -1z"/>
<path d="M1057 542 c-24 -26 -23 -104 1 -125 15 -14 41 -17 144 -17 146 0 158
6 158 82 0 71 -13 78 -162 78 -108 0 -127 -2 -141 -18z"/>
</g>
</svg>
