<?xml version="1.0" standalone="no"?>
<!DOCTYPE svg PUBLIC "-//W3C//DTD SVG 20010904//EN"
 "http://www.w3.org/TR/2001/REC-SVG-20010904/DTD/svg10.dtd">
<svg version="1.0" xmlns="http://www.w3.org/2000/svg"
 width="512.000000pt" height="512.000000pt" viewBox="0 0 512.000000 512.000000"
 preserveAspectRatio="xMidYMid meet">
<metadata>
Created by potrace 1.16, written by Peter Selinger 2001-2019
</metadata>
<g transform="translate(0.000000,512.000000) scale(0.100000,-0.100000)"
fill="#000000" stroke="none">
<path d="M2271 5109 c-55 -7 -81 -15 -98 -31 -28 -26 -31 -76 -5 -109 22 -27
30 -27 240 -11 224 16 523 -9 727 -61 50 -13 50 -13 62 -68 32 -145 73 -518
73 -671 l0 -58 -147 0 c-528 0 -1044 102 -1487 294 -117 50 -309 149 -350 179
-17 13 -17 14 6 29 125 82 330 178 518 242 74 25 141 54 148 63 19 26 15 80
-8 103 -28 28 -73 25 -187 -11 -539 -173 -1034 -553 -1352 -1038 -203 -310
-334 -656 -393 -1041 -21 -136 -18 -617 5 -753 46 -274 121 -506 237 -742 134
-271 292 -487 516 -705 372 -362 825 -593 1344 -688 135 -24 166 -26 435 -26
260 -1 304 2 424 23 447 77 851 259 1196 538 120 97 316 296 408 414 257 331
429 720 504 1139 35 195 44 546 19 750 -57 467 -243 915 -533 1283 -73 93
-327 347 -420 420 -364 287 -815 475 -1273 532 -135 16 -481 19 -609 4z m1269
-354 c116 -50 270 -136 368 -205 l72 -51 0 -150 c0 -315 -70 -776 -192 -1264
-196 -788 -561 -1490 -1067 -2053 -86 -96 -101 -117 -101 -146 0 -61 75 -97
126 -62 12 8 68 67 125 131 407 457 742 1045 949 1665 170 510 319 1279 320
1657 l1 98 132 -135 c159 -163 286 -327 281 -361 -2 -13 -22 -134 -44 -269
-83 -516 -184 -943 -313 -1325 -181 -533 -438 -969 -863 -1465 -112 -130 -419
-442 -567 -575 l-99 -89 -146 2 c-81 1 -201 8 -267 17 -115 15 -301 52 -319
62 -4 3 46 34 113 68 134 70 319 189 411 266 53 44 60 54 60 86 0 47 -32 83
-73 83 -21 0 -60 -23 -138 -80 -179 -133 -382 -247 -554 -314 l-70 -27 -85 36
c-98 42 -226 110 -323 172 l-68 43 108 57 c742 387 1355 1009 1713 1738 201
408 319 822 376 1310 22 182 25 633 6 800 -16 134 -41 314 -48 338 -5 17 -3
17 38 1 24 -10 86 -36 138 -59z m-2340 -321 c523 -315 1217 -494 1920 -494
l145 0 -7 -117 c-7 -109 -39 -358 -56 -442 l-8 -36 -233 2 c-545 4 -1064 99
-1531 280 -172 67 -458 211 -610 308 -74 48 -139 90 -144 95 -13 13 30 67 164
204 99 102 263 246 280 246 3 0 39 -21 80 -46z m-532 -592 c342 -229 754 -410
1180 -517 345 -86 668 -128 1093 -141 l216 -7 -23 -86 c-38 -135 -71 -234
-136 -399 -52 -131 -64 -153 -86 -159 -54 -13 -615 5 -796 27 -585 69 -1088
230 -1532 491 -78 46 -256 163 -307 203 -16 13 -16 18 14 102 17 49 53 137 79
196 54 120 185 348 201 348 5 0 49 -26 97 -58z m4116 -370 c84 -203 139 -418
167 -647 16 -135 13 -421 -6 -571 -68 -532 -317 -1029 -707 -1410 -261 -255
-529 -424 -877 -550 -94 -35 -290 -88 -368 -100 l-42 -6 202 203 c311 313 502
544 711 859 332 500 473 846 667 1636 70 289 119 519 138 659 20 139 19 137
47 82 13 -26 44 -95 68 -155z m-4481 -436 c170 -120 469 -277 702 -369 484
-191 962 -280 1578 -295 l267 -7 -56 -100 c-137 -244 -356 -542 -409 -557 -33
-10 -314 -3 -500 13 -600 49 -1144 217 -1627 502 l-86 52 -7 62 c-18 174 -5
465 31 666 19 101 14 99 107 33z m281 -1161 c444 -193 960 -306 1469 -322 126
-4 197 -10 197 -16 0 -6 -42 -51 -92 -100 -304 -294 -612 -513 -969 -693
l-129 -64 -67 59 c-285 246 -519 569 -657 906 -45 111 -108 308 -120 378 l-7
38 123 -65 c68 -36 181 -90 252 -121z"/>
</g>
</svg>
