<?xml version="1.0" standalone="no"?>
<!DOCTYPE svg PUBLIC "-//W3C//DTD SVG 20010904//EN"
 "http://www.w3.org/TR/2001/REC-SVG-20010904/DTD/svg10.dtd">
<svg version="1.0" xmlns="http://www.w3.org/2000/svg"
 width="512.000000pt" height="512.000000pt" viewBox="0 0 512.000000 512.000000"
 preserveAspectRatio="xMidYMid meet">
<metadata>
Created by potrace 1.16, written by Peter Selinger 2001-2019
</metadata>
<g transform="translate(0.000000,512.000000) scale(0.100000,-0.100000)"
fill="#000000" stroke="none">
<path d="M1698 4959 c-125 -17 -246 -106 -304 -224 -27 -56 -29 -68 -29 -175
0 -107 2 -119 29 -175 79 -159 247 -248 426 -223 128 17 248 105 307 225 26
54 28 67 28 173 0 105 -2 120 -27 170 -83 169 -243 254 -430 229z m167 -191
c116 -61 161 -204 100 -317 -76 -138 -258 -165 -369 -55 -134 134 -61 360 127
393 49 8 100 1 142 -21z"/>
<path d="M1300 3987 c-77 -28 -617 -312 -648 -341 -19 -17 -40 -42 -47 -56 -7
-14 -39 -158 -70 -320 -52 -269 -56 -300 -46 -346 22 -98 105 -163 209 -164
63 0 109 19 153 64 41 41 45 51 90 266 22 102 42 193 45 202 3 11 50 32 142
62 75 25 140 46 144 46 4 0 9 -174 10 -387 l3 -388 26 -57 c19 -38 62 -92 138
-172 61 -64 111 -119 111 -123 0 -13 -142 -477 -151 -495 -17 -32 -64 -47
-221 -73 -84 -13 -268 -45 -408 -69 -236 -41 -256 -46 -277 -71 -31 -36 -29
-70 6 -106 36 -35 41 -35 228 -4 81 14 266 46 411 71 278 47 315 58 368 116
46 48 64 92 124 293 29 99 55 183 59 187 10 12 222 -221 241 -266 10 -23 46
-220 81 -444 67 -426 69 -434 124 -448 37 -9 81 13 95 47 11 25 3 89 -54 447
-61 388 -68 422 -101 487 -29 61 -73 111 -316 365 -154 162 -291 313 -302 335
-21 39 -22 52 -25 482 l-3 443 -26 20 c-14 11 -35 20 -47 20 -11 0 -130 -37
-264 -82 -176 -59 -246 -87 -256 -103 -7 -11 -34 -121 -60 -245 -26 -123 -51
-230 -57 -237 -16 -19 -57 -16 -68 5 -11 20 88 555 105 571 5 5 140 77 301
160 l292 151 340 0 c213 0 350 -4 367 -11 16 -5 123 -71 239 -145 172 -109
218 -134 248 -134 29 0 73 23 213 110 104 65 186 110 197 108 29 -4 45 -33 31
-55 -13 -21 -422 -281 -443 -282 -8 -1 -51 19 -97 44 -100 55 -151 60 -183 19
-25 -31 -27 -71 -6 -101 8 -12 59 -45 113 -73 106 -56 173 -71 234 -51 20 7
139 76 264 155 277 174 289 186 289 306 0 71 -3 82 -30 122 -41 58 -101 88
-180 88 -65 0 -92 -13 -321 -157 l-81 -51 -189 121 c-104 66 -213 128 -241
139 -48 16 -87 18 -420 18 -269 -1 -377 -4 -403 -13z"/>
<path d="M1940 3660 c-19 -19 -20 -33 -20 -538 l0 -518 127 -194 c199 -307
233 -362 243 -400 5 -19 30 -240 55 -490 25 -250 48 -470 51 -488 7 -48 36
-72 84 -72 56 0 80 26 80 88 0 61 -87 923 -100 982 -15 78 -42 127 -214 390
l-166 255 0 483 c0 469 -1 483 -20 502 -13 13 -33 20 -60 20 -27 0 -47 -7 -60
-20z"/>
<path d="M4290 3301 c-603 -324 -589 -314 -568 -388 7 -28 27 -44 156 -120 81
-48 151 -90 155 -93 8 -7 -383 -668 -488 -825 -504 -758 -1203 -1247 -2035
-1424 -224 -47 -312 -55 -624 -56 l-298 -1 -19 -23 c-21 -25 -25 -71 -9 -100
21 -41 62 -46 345 -46 289 1 402 11 645 61 673 138 1298 497 1764 1013 240
265 338 406 680 978 212 355 246 417 246 452 0 47 -10 56 -163 146 -54 32 -94
61 -90 65 11 10 799 430 807 430 3 0 6 -207 6 -460 0 -253 -3 -460 -6 -460 -3
0 -58 32 -123 70 -126 75 -174 87 -208 52 -10 -9 -116 -182 -235 -383 -234
-392 -243 -414 -198 -459 20 -20 71 -27 105 -14 9 4 102 151 207 328 105 176
196 326 202 333 8 9 48 -11 160 -78 90 -53 160 -89 176 -89 15 0 39 9 54 21
l26 20 0 653 0 653 -23 21 c-47 44 -58 39 -647 -277z"/>
<path d="M1206 2387 c-10 -8 -35 -71 -61 -156 -25 -79 -46 -146 -49 -148 -2
-3 -154 -45 -338 -94 -183 -49 -356 -101 -384 -114 -65 -32 -148 -119 -182
-192 -19 -42 -27 -78 -30 -134 -4 -73 -3 -77 23 -97 60 -47 129 -14 140 66 4
26 11 61 16 77 13 43 64 102 107 124 21 10 199 62 397 115 273 74 365 102 381
119 25 26 114 315 114 371 0 48 -28 76 -78 76 -21 0 -46 -6 -56 -13z"/>
<path d="M3859 1571 c-36 -36 -37 -70 -3 -110 35 -42 84 -43 125 -2 37 38 39
82 4 116 -35 36 -88 34 -126 -4z"/>
<path d="M4820 1580 c-15 -15 -20 -33 -20 -69 0 -59 22 -81 81 -81 48 0 79 36
79 91 0 52 -27 79 -80 79 -27 0 -47 -7 -60 -20z"/>
<path d="M4820 1260 c-15 -15 -20 -33 -20 -69 0 -59 22 -81 81 -81 48 0 79 36
79 91 0 52 -27 79 -80 79 -27 0 -47 -7 -60 -20z"/>
<path d="M4820 940 c-15 -15 -20 -33 -20 -69 0 -59 22 -81 81 -81 48 0 79 36
79 91 0 52 -27 79 -80 79 -27 0 -47 -7 -60 -20z"/>
</g>
</svg>
