<?xml version="1.0" standalone="no"?>
<!DOCTYPE svg PUBLIC "-//W3C//DTD SVG 20010904//EN"
 "http://www.w3.org/TR/2001/REC-SVG-20010904/DTD/svg10.dtd">
<svg version="1.0" xmlns="http://www.w3.org/2000/svg"
 width="512.000000pt" height="512.000000pt" viewBox="0 0 512.000000 512.000000"
 preserveAspectRatio="xMidYMid meet">
<metadata>
Created by potrace 1.16, written by Peter Selinger 2001-2019
</metadata>
<g transform="translate(0.000000,512.000000) scale(0.100000,-0.100000)"
fill="#000000" stroke="none">
<path d="M1405 5034 c-349 -50 -635 -193 -881 -438 -214 -214 -340 -441 -411
-736 -35 -145 -44 -430 -18 -582 72 -430 302 -786 670 -1033 90 -60 247 -135
355 -170 l85 -27 -3 -887 c-2 -629 0 -897 8 -924 14 -49 74 -115 125 -138 35
-16 69 -19 265 -19 196 0 230 3 265 19 51 23 111 89 125 138 8 27 10 295 8
924 l-3 885 85 27 c95 31 257 107 340 160 l55 36 5 -328 c6 -362 5 -360 73
-401 31 -19 60 -20 1207 -20 1155 0 1176 0 1208 20 18 11 41 34 52 52 19 32
20 52 20 488 0 433 -1 457 -20 487 -10 18 -31 40 -47 50 -26 17 -87 18 -1074
23 l-1047 5 40 65 c22 36 60 107 84 158 l44 92 958 0 c937 0 958 0 990 20 18
11 41 34 52 52 19 32 20 52 20 488 0 436 -1 456 -20 488 -11 18 -34 41 -52 52
-32 20 -53 20 -990 20 l-957 0 -46 97 c-74 158 -165 284 -299 419 -216 215
-450 344 -755 416 -68 16 -129 21 -286 23 -110 2 -213 1 -230 -1z m326 -168
c47 -3 131 -17 188 -32 372 -93 679 -328 865 -659 25 -45 46 -85 46 -88 0 -4
-36 -7 -79 -7 l-79 0 -65 98 c-84 126 -168 216 -275 297 -155 117 -340 198
-521 230 -109 19 -315 19 -427 0 -480 -84 -865 -461 -963 -942 -29 -140 -29
-346 0 -486 98 -481 483 -858 963 -942 112 -19 318 -19 427 0 320 56 611 248
793 523 l68 102 79 0 c78 0 78 0 70 -23 -16 -40 -99 -176 -146 -238 -32 -40
-53 -59 -68 -59 -52 0 -127 -75 -127 -128 0 -46 -271 -214 -439 -271 -378
-129 -800 -85 -1134 118 -317 192 -533 485 -625 848 -25 100 -27 123 -27 313
0 190 2 213 27 313 110 432 403 773 810 941 150 62 414 112 528 100 14 -2 64
-5 111 -8z m64 -332 c187 -36 364 -127 507 -263 78 -74 158 -167 158 -185 0
-3 -116 -6 -257 -6 -240 0 -260 -1 -291 -20 -18 -11 -41 -34 -52 -52 -19 -32
-20 -52 -20 -488 0 -436 1 -456 20 -488 11 -18 34 -41 52 -52 31 -19 51 -20
291 -20 141 0 257 -3 257 -6 0 -18 -80 -111 -158 -185 -142 -134 -315 -224
-507 -264 -93 -19 -275 -21 -366 -5 -396 72 -706 351 -826 745 -25 84 -27 102
-27 275 0 173 2 191 27 275 161 528 664 840 1192 739z m1165 -1014 l0 -400
-480 0 -480 0 0 400 0 400 480 0 480 0 0 -400z m1920 0 l0 -400 -880 0 -880 0
0 400 0 400 880 0 880 0 0 -400z m-1120 -1440 l0 -400 -560 0 -560 0 0 400 0
400 560 0 560 0 0 -400z m1120 0 l0 -400 -480 0 -480 0 0 400 0 400 480 0 480
0 0 -400z m-3055 -95 c4 -11 9 -84 12 -162 l6 -143 -243 0 -243 0 6 143 c3 78
8 151 12 162 6 19 15 20 225 20 210 0 219 -1 225 -20z m15 -1060 c0 -659 1
-652 -60 -674 -43 -15 -317 -15 -360 0 -61 22 -60 15 -60 674 l0 595 240 0
240 0 0 -595z"/>
<path d="M2528 3613 l-208 -208 -50 50 -50 50 -63 -63 -62 -62 113 -112 112
-113 272 272 273 273 -60 60 c-33 33 -62 60 -65 60 -3 0 -98 -93 -212 -207z"/>
<path d="M3280 3520 l0 -80 80 0 80 0 0 80 0 80 -80 0 -80 0 0 -80z"/>
<path d="M3600 3520 l0 -80 80 0 80 0 0 80 0 80 -80 0 -80 0 0 -80z"/>
<path d="M3920 3520 l0 -80 80 0 80 0 0 80 0 80 -80 0 -80 0 0 -80z"/>
<path d="M4240 3520 l0 -80 80 0 80 0 0 80 0 80 -80 0 -80 0 0 -80z"/>
<path d="M4560 3520 l0 -80 80 0 80 0 0 80 0 80 -80 0 -80 0 0 -80z"/>
<path d="M2800 2080 l0 -80 80 0 80 0 0 80 0 80 -80 0 -80 0 0 -80z"/>
<path d="M3120 2080 l0 -80 80 0 80 0 0 80 0 80 -80 0 -80 0 0 -80z"/>
<path d="M3440 2080 l0 -80 80 0 80 0 0 80 0 80 -80 0 -80 0 0 -80z"/>
<path d="M4155 2320 l-59 -60 89 -90 90 -90 -90 -90 -90 -90 63 -62 62 -63 90
90 90 90 90 -90 90 -90 62 63 63 62 -90 90 -90 90 90 90 90 90 -63 62 -62 63
-90 -90 -90 -90 -88 88 c-48 48 -90 87 -93 87 -2 0 -31 -27 -64 -60z"/>
<path d="M2232 1180 c-18 -11 -41 -34 -52 -52 -19 -32 -20 -52 -20 -488 0
-436 1 -456 20 -488 11 -18 34 -41 52 -52 32 -20 53 -20 1208 -20 1155 0 1176
0 1208 20 18 11 41 34 52 52 19 32 20 52 20 488 0 436 -1 456 -20 488 -11 18
-34 41 -52 52 -32 20 -53 20 -1208 20 -1155 0 -1176 0 -1208 -20z m1048 -540
l0 -400 -480 0 -480 0 0 400 0 400 480 0 480 0 0 -400z m1280 0 l0 -400 -560
0 -560 0 0 400 0 400 560 0 560 0 0 -400z"/>
<path d="M2848 733 l-208 -208 -50 50 -50 50 -63 -63 -62 -62 113 -112 112
-113 272 272 273 273 -60 60 c-33 33 -62 60 -65 60 -3 0 -98 -93 -212 -207z"/>
<path d="M3600 640 l0 -80 80 0 80 0 0 80 0 80 -80 0 -80 0 0 -80z"/>
<path d="M3920 640 l0 -80 80 0 80 0 0 80 0 80 -80 0 -80 0 0 -80z"/>
<path d="M4240 640 l0 -80 80 0 80 0 0 80 0 80 -80 0 -80 0 0 -80z"/>
</g>
</svg>
