<svg xmlns="http://www.w3.org/2000/svg">
    <symbol id="1" viewBox="0 0 512.000000 512.000000">
        <g transform="translate(0.000000,512.000000) scale(0.100000,-0.100000)">
            <path d="M2319 5105 c-525 -85 -953 -391 -1178 -842 -79 -158 -86 -270 -23
            -387 40 -73 97 -116 276 -207 158 -80 167 -83 233 -83 141 -1 237 64 333 224
            53 89 192 231 272 278 136 80 308 111 438 78 248 -62 410 -260 410 -498 0 -97
            -16 -161 -65 -263 -78 -162 -190 -282 -475 -513 -232 -188 -276 -228 -346
            -317 -165 -206 -243 -407 -266 -689 -8 -108 -8 -154 1 -197 21 -100 91 -183
            178 -215 57 -20 510 -19 559 1 103 43 155 121 183 277 11 56 27 123 36 148 50
            139 179 287 425 486 369 298 574 566 673 880 108 340 68 763 -103 1098 -192
            379 -529 631 -969 727 -125 28 -461 36 -592 14z m539 -185 c523 -106 871 -454
            984 -983 29 -137 31 -372 4 -497 -47 -217 -146 -407 -313 -603 -81 -94 -160
            -166 -373 -344 -185 -154 -302 -276 -368 -383 -57 -92 -106 -227 -117 -325 -9
            -71 -25 -105 -62 -135 -26 -20 -35 -21 -235 -18 l-208 3 -32 33 -33 33 1 122
            c1 265 93 501 268 685 39 41 152 140 251 220 317 258 465 417 551 597 63 131
            79 198 78 340 0 137 -17 211 -69 316 -127 251 -424 405 -715 371 -205 -24
            -368 -109 -526 -274 -72 -74 -107 -121 -158 -205 -43 -72 -81 -103 -136 -110
            -33 -5 -58 5 -190 73 -166 86 -193 111 -206 190 -7 47 13 102 86 230 217 378
            605 623 1087 684 105 13 316 4 431 -20z"/>
            <path d="M2222 1116 c-131 -49 -240 -167 -282 -303 -27 -87 -29 -388 -4 -474
            47 -158 149 -267 300 -320 48 -17 77 -20 160 -17 93 3 107 6 175 40 130 65
            220 178 254 319 20 86 20 332 0 418 -33 140 -132 263 -262 324 -61 28 -79 32
            -173 34 -91 3 -114 0 -168 -21z m277 -181 c53 -27 100 -74 133 -138 22 -39 23
            -54 23 -227 0 -173 -1 -188 -23 -227 -58 -109 -145 -167 -252 -167 -115 0
            -206 61 -259 173 -25 53 -26 64 -26 221 0 159 1 167 27 220 78 159 232 219
            377 145z"/>
        </g>
    </symbol>

    <symbol id="2" viewBox="0 0 512.000000 512.000000">
        <g transform="translate(0.000000,512.000000) scale(0.100000,-0.100000)">
            <path d="M583 4781 c-104 -38 -180 -107 -231 -211 l-27 -55 0 -1235 0 -1235
            29 -60 c38 -77 114 -153 191 -191 59 -29 62 -29 257 -32 188 -3 197 -3 217 17
            25 25 28 87 7 117 -13 17 -31 20 -183 25 -193 6 -233 18 -294 86 -68 75 -64 0
            -64 1278 0 1158 0 1160 21 1205 25 54 64 94 119 124 l40 21 1885 0 c1579 0
            1891 -2 1924 -14 56 -19 122 -84 143 -139 17 -44 18 -113 18 -1202 0 -953 -2
            -1162 -14 -1194 -18 -53 -77 -115 -131 -140 -44 -21 -60 -21 -853 -26 -786 -5
            -809 -6 -823 -24 -21 -30 -18 -92 6 -116 20 -20 29 -20 858 -18 l837 3 60 29
            c77 38 153 114 191 191 l29 60 0 1235 0 1235 -29 60 c-38 77 -114 153 -191
            191 l-60 29 -1940 2 c-1872 2 -1942 2 -1992 -16z"/>
            <path d="M900 4140 c-13 -13 -20 -33 -20 -60 0 -27 7 -47 20 -60 20 -20 33
            -20 1660 -20 1627 0 1640 0 1660 20 13 13 20 33 20 60 0 27 -7 47 -20 60 -20
            20 -33 20 -1660 20 -1627 0 -1640 0 -1660 -20z"/>
            <path d="M1540 3500 c-13 -13 -20 -33 -20 -60 0 -27 7 -47 20 -60 20 -20 33
            -20 1020 -20 987 0 1000 0 1020 20 13 13 20 33 20 60 0 27 -7 47 -20 60 -20
            20 -33 20 -1020 20 -987 0 -1000 0 -1020 -20z"/>
            <path d="M3298 2702 c-172 -172 -178 -179 -178 -218 0 -53 31 -84 85 -84 34 0
            46 8 136 97 l99 97 0 -77 c0 -94 16 -117 81 -117 39 0 48 6 140 97 l99 97 0
            -77 c0 -119 -4 -117 240 -117 187 0 201 1 220 20 13 13 20 33 20 60 0 27 -7
            47 -20 60 -18 18 -33 20 -160 20 l-140 0 0 140 c0 127 -2 142 -20 160 -14 14
            -33 20 -61 20 -39 0 -48 -6 -140 -97 l-99 -97 0 77 c0 94 -16 117 -82 117 -42
            0 -46 -4 -220 -178z"/>
            <path d="M1840 2560 c-292 -30 -547 -250 -620 -536 -14 -53 -20 -111 -20 -184
            0 -163 35 -278 126 -416 l34 -51 0 -507 c0 -493 1 -507 20 -526 13 -13 33 -20
            58 -20 31 0 71 23 254 145 120 80 222 145 228 145 6 0 108 -65 228 -145 183
            -122 223 -145 254 -145 25 0 45 7 58 20 19 19 20 33 20 528 l0 508 26 35 c43
            58 94 168 115 247 26 103 26 262 -1 366 -39 153 -143 308 -270 401 -141 104
            -329 153 -510 135z m219 -185 c172 -45 322 -182 383 -350 29 -82 36 -228 14
            -316 -64 -252 -277 -419 -536 -419 -259 0 -472 167 -536 419 -22 88 -15 234
            14 316 60 165 210 303 379 350 65 18 216 18 282 0z m-460 -1183 c189 -99 451
            -98 650 2 l71 36 0 -336 0 -336 -27 18 c-16 9 -98 64 -183 121 -123 82 -162
            103 -190 103 -28 0 -67 -21 -190 -103 -85 -57 -167 -112 -182 -121 l-28 -18 0
            337 c0 185 3 335 8 333 4 -2 36 -18 71 -36z"/>
        </g>
    </symbol>

    <symbol id="3" viewBox="0 0 512.000000 512.000000">
        <g transform="translate(0.000000,512.000000) scale(0.100000,-0.100000)">
            <path d="M273 5023 c-17 -10 -42 -31 -55 -48 l-23 -30 0 -2045 0 -2045 23 -33
            c52 -72 -49 -67 1294 -70 l1206 -2 4 -228 c3 -205 5 -231 24 -272 29 -62 67
            -105 123 -138 41 -24 58 -27 152 -30 105 -4 106 -4 127 23 21 27 22 36 22 326
            0 190 4 299 10 299 5 0 58 -16 117 -36 136 -45 329 -139 503 -245 74 -45 148
            -88 163 -96 97 -51 223 -7 268 92 16 35 19 68 19 251 l0 211 43 17 c64 24 122
            78 154 144 37 75 40 191 6 263 -28 61 -89 121 -152 151 l-51 23 0 220 c0 209
            -1 223 -22 265 -13 24 -40 58 -61 74 -35 28 -46 31 -110 31 l-72 0 -216 -122
            c-119 -68 -219 -123 -223 -123 -3 0 -6 579 -6 1288 0 808 -4 1300 -10 1322 -7
            27 -74 99 -280 305 l-270 270 -1338 3 c-1260 2 -1339 1 -1369 -15z m2577 -348
            c0 -231 6 -261 62 -295 30 -18 50 -20 246 -20 l212 0 0 -1299 0 -1299 -82 -30
            c-167 -60 -178 -62 -387 -62 -108 0 -228 -5 -267 -10 -176 -23 -316 -139 -373
            -308 -40 -118 -20 -290 44 -384 14 -20 25 -39 25 -42 0 -4 -443 -6 -985 -6
            l-985 0 0 1980 0 1980 1245 0 1245 0 0 -205z m285 -35 l110 -110 -113 0 -112
            0 0 110 c0 61 1 110 3 110 1 0 52 -49 112 -110z m943 -3416 c2 -799 8 -749
            -78 -694 l-50 32 0 658 0 659 43 24 c23 14 51 25 62 24 20 -2 20 -10 23 -703z
            m-298 -2 l0 -559 -125 64 c-146 74 -272 125 -393 157 l-87 23 0 303 0 303 85
            27 c105 32 265 103 407 180 59 32 109 59 111 59 1 1 2 -250 2 -557z m-780 -13
            l0 -291 -187 4 c-212 5 -233 10 -310 80 -70 65 -88 107 -88 208 0 96 13 129
            74 193 75 79 130 94 354 96 l157 1 0 -291z m0 -709 c0 -272 0 -272 -55 -228
            -49 38 -55 69 -55 283 l0 195 55 0 55 0 0 -250z"/>
            <path d="M812 4577 c-28 -29 -29 -86 -3 -118 l19 -24 769 -3 c422 -1 778 0
            791 3 62 15 85 100 39 143 l-23 22 -785 0 -786 0 -21 -23z"/>
            <path d="M816 4119 c-21 -16 -26 -29 -26 -64 0 -35 5 -48 26 -64 27 -21 30
            -21 1040 -21 732 0 1020 3 1038 11 50 23 58 98 14 139 -22 20 -31 20 -1044 20
            -1018 0 -1021 0 -1048 -21z"/>
            <path d="M833 3670 c-47 -19 -59 -101 -20 -138 l23 -22 1026 0 c1149 0 1062
            -6 1075 72 5 32 1 41 -25 68 l-30 30 -1014 -1 c-558 0 -1023 -4 -1035 -9z"/>
            <path d="M810 3190 c-13 -13 -20 -33 -20 -60 0 -27 7 -47 20 -60 20 -20 33
            -20 1054 -20 l1035 0 20 26 c27 34 27 74 0 108 l-20 26 -1035 0 c-1021 0
            -1034 0 -1054 -20z"/>
            <path d="M1248 2850 c-75 -22 -126 -92 -135 -186 l-6 -54 -202 0 c-193 0 -203
            -1 -236 -23 -64 -43 -70 -68 -67 -283 l3 -191 33 -52 32 -52 0 -258 c0 -257 0
            -257 26 -309 19 -39 38 -59 72 -80 l47 -27 660 0 c650 0 661 0 700 21 22 11
            54 40 70 63 l30 43 5 276 5 277 30 44 30 44 3 201 c4 305 4 306 -305 306
            l-203 0 0 45 c0 84 -42 153 -115 186 -35 16 -66 18 -245 18 -113 0 -217 -4
            -232 -9z m410 -172 c7 -7 12 -25 12 -40 l0 -28 -195 0 c-190 0 -195 0 -195 21
            0 11 5 29 10 40 10 18 23 19 183 19 121 0 177 -4 185 -12z m-678 -310 c0 -86
            19 -132 69 -165 34 -23 35 -23 425 -23 373 0 393 1 424 20 54 33 72 74 72 163
            l0 77 105 0 105 0 0 -139 c0 -120 -2 -141 -19 -162 -38 -49 -170 -95 -336
            -118 -126 -18 -141 -16 -177 25 -46 52 -96 74 -170 74 -77 0 -131 -23 -175
            -73 -39 -45 -58 -46 -225 -17 -147 25 -223 53 -270 100 l-38 38 0 136 0 136
            105 0 105 0 0 -72z m820 22 l0 -50 -325 0 -325 0 0 50 0 50 325 0 325 0 0 -50z
            m-870 -506 c66 -17 242 -44 287 -44 28 0 35 -5 48 -37 20 -48 59 -89 110 -116
            51 -26 145 -28 197 -3 49 24 105 82 119 123 9 29 15 33 44 33 54 0 238 29 310
            49 l65 18 0 -191 c0 -136 -4 -196 -12 -204 -17 -17 -1229 -17 -1246 0 -9 9
            -12 68 -12 206 0 181 1 194 18 187 9 -3 42 -13 72 -21z"/>
            <path d="M4537 1691 c-62 -63 -77 -85 -77 -109 0 -47 39 -86 85 -86 33 0 45 8
            116 81 65 66 79 86 79 112 0 46 -38 81 -88 81 -35 0 -46 -7 -115 -79z"/>
            <path d="M4635 1265 c-17 -16 -25 -35 -25 -60 0 -25 8 -44 25 -60 23 -24 31
            -25 135 -25 104 0 112 1 135 25 17 16 25 35 25 60 0 25 -8 44 -25 60 -23 24
            -31 25 -135 25 -104 0 -112 -1 -135 -25z"/>
            <path d="M4479 910 c-23 -13 -42 -65 -35 -93 8 -33 159 -177 186 -177 51 0 89
            38 90 89 0 30 -11 45 -78 113 -68 67 -83 78 -113 78 -19 0 -41 -5 -50 -10z"/>
        </g>
    </symbol>

    <symbol id="4" viewBox="0 0 512.000000 512.000000">
        <g transform="translate(0.000000,512.000000) scale(0.100000,-0.100000)">
            <path d="M2455 4043 c-726 -199 -2311 -646 -2331 -656 -33 -17 -65 -50 -85
            -87 -18 -34 -26 -328 -10 -382 7 -21 22 -45 34 -52 28 -19 1130 -326 1167
            -326 16 0 42 11 57 24 23 20 28 32 28 70 0 32 -6 51 -20 65 -17 17 -343 115
            -730 218 -33 9 -63 19 -67 22 -4 4 458 136 1027 295 l1035 288 708 -197 c389
            -109 721 -201 737 -206 l30 -9 0 -169 0 -169 -80 -22 c-115 -30 -134 -39 -150
            -71 -22 -41 -18 -74 11 -108 33 -39 66 -40 189 -6 50 14 93 25 97 25 4 0 38
            -46 75 -102 63 -97 105 -199 84 -206 -5 -2 -30 -17 -55 -33 -88 -59 -134 -167
            -121 -286 5 -45 -5 -125 -44 -360 -28 -166 -51 -319 -51 -340 0 -126 131 -193
            380 -193 221 0 354 58 374 163 4 21 -12 146 -45 343 -38 229 -51 332 -50 398
            1 58 -4 105 -14 137 -20 59 -81 130 -133 153 -37 17 -40 22 -46 70 -9 71 -43
            147 -103 237 l-52 76 352 98 c194 53 367 103 385 111 55 23 65 61 60 253 -3
            131 -7 173 -20 197 -20 37 -64 76 -104 92 -16 6 -540 154 -1164 328 -1098 307
            -1138 317 -1235 320 -55 1 -109 0 -120 -3z m993 -418 c537 -151 672 -192 672
            -205 0 -9 -7 -40 -16 -69 -14 -49 -17 -52 -42 -46 -15 3 -337 92 -717 198
            l-690 193 -3 76 -3 77 63 -18 c35 -10 366 -103 736 -206z m-988 142 l0 -73
            -1107 -308 c-610 -170 -1114 -311 -1121 -314 -10 -3 -12 13 -10 73 l3 77 1100
            308 c605 169 1108 308 1118 309 15 1 17 -9 17 -72z m2164 -472 l286 -80 0 -72
            c0 -40 -3 -73 -7 -73 -3 0 -86 23 -184 50 -170 48 -228 57 -264 44 -21 -9 -45
            -56 -45 -91 1 -50 29 -73 131 -103 52 -15 87 -31 79 -34 -8 -3 -98 -28 -199
            -56 -148 -42 -185 -49 -192 -38 -24 38 -4 232 41 388 10 36 24 84 30 108 7 27
            16 42 24 40 7 -2 142 -39 300 -83z m-221 -1196 c63 -32 75 -102 28 -150 -48
            -48 -116 -38 -147 22 -19 37 -11 79 19 106 36 34 65 40 100 22z m112 -576 c19
            -116 35 -218 35 -226 0 -33 -196 -49 -313 -26 -53 11 -56 13 -51 38 3 14 20
            116 37 226 l33 200 84 -3 c47 -2 96 1 110 6 14 5 26 7 27 3 1 -3 18 -101 38
            -218z"/>
            <path d="M2300 3064 c-223 -27 -408 -66 -582 -120 -109 -35 -152 -59 -163 -93
            -2 -9 -58 -309 -124 -668 -80 -438 -117 -661 -112 -680 21 -78 147 -90 355
            -34 129 35 190 61 200 86 14 37 6 86 -19 110 -33 34 -95 33 -215 -5 -51 -17
            -98 -30 -103 -30 -10 0 -5 51 13 137 10 47 14 52 43 58 18 4 82 21 142 38 101
            29 121 32 250 31 131 -1 148 -3 265 -38 110 -33 141 -38 265 -43 148 -5 220 5
            405 58 61 18 101 22 210 22 120 0 146 -4 240 -31 58 -17 121 -33 142 -37 l36
            -7 17 -90 c9 -49 15 -91 13 -93 -2 -2 -43 8 -93 21 -203 54 -221 56 -395 51
            -149 -4 -175 -8 -264 -36 -195 -61 -336 -61 -545 -1 -151 44 -193 38 -221 -29
            -15 -37 1 -96 32 -112 45 -24 270 -80 364 -91 132 -14 257 0 424 47 123 36
            128 36 270 32 129 -4 156 -8 245 -36 102 -33 276 -58 321 -47 43 11 74 50 74
            93 0 22 -54 331 -119 688 -114 619 -120 650 -145 672 -48 41 -349 124 -578
            159 -99 15 -564 28 -648 18z m557 -199 c186 -25 487 -97 516 -124 8 -8 140
            -711 135 -716 -2 -2 -30 6 -63 16 -144 46 -334 61 -475 38 -36 -5 -112 -24
            -170 -42 -98 -30 -114 -32 -250 -31 -132 1 -154 4 -245 32 -150 46 -221 56
            -370 49 -91 -4 -160 -13 -229 -31 -55 -14 -101 -24 -103 -22 -5 5 116 666 126
            692 15 35 282 107 516 138 141 19 466 20 612 1z"/>
        </g>
    </symbol>

    <symbol id="5" viewBox="0 0 512.000000 512.000000">
        <g transform="translate(0.000000,512.000000) scale(0.100000,-0.100000)">
            <path d="M3015 4954 c-190 -32 -387 -110 -554 -221 -95 -63 -270 -232 -316
            -305 -16 -26 -40 -51 -52 -57 -13 -6 -37 -31 -55 -56 -24 -34 -36 -43 -52 -40
            -72 17 -435 79 -616 106 -150 22 -232 29 -270 25 -121 -14 -262 -112 -322
            -223 -56 -103 -263 -881 -393 -1478 -127 -582 -295 -1538 -295 -1673 0 -158
            88 -311 217 -379 114 -60 947 -265 1533 -377 329 -63 714 -126 770 -126 161 1
            329 85 427 215 104 138 137 236 243 732 136 631 270 1191 471 1963 58 222 62
            242 62 350 0 93 -4 126 -22 174 -30 83 -73 146 -143 211 -64 59 -121 93 -215
            124 -108 37 -598 167 -806 215 -24 6 -26 9 -16 28 6 11 8 37 5 58 -6 36 -3 41
            44 83 155 139 326 207 525 207 195 0 345 -60 476 -190 62 -61 84 -92 122 -170
            52 -109 69 -165 132 -453 76 -344 129 -462 288 -632 l65 -70 -59 -116 c-66
            -133 -131 -243 -309 -524 -242 -382 -352 -593 -419 -800 -65 -198 -76 -267
            -75 -460 1 -150 4 -181 27 -269 61 -227 192 -413 348 -492 137 -69 336 -84
            511 -40 480 122 760 596 735 1245 -11 296 -74 568 -199 861 -108 252 -206 414
            -331 546 l-78 83 34 98 c119 341 125 643 21 946 -160 462 -561 806 -1026 882
            -113 18 -324 18 -433 -1z m452 -128 c232 -49 427 -160 601 -340 326 -338 430
            -769 296 -1231 -41 -142 -38 -140 -100 -71 -113 127 -168 259 -235 569 -57
            266 -81 346 -141 467 -44 90 -63 117 -137 191 -71 71 -102 94 -181 132 -138
            68 -228 89 -380 90 -249 1 -448 -80 -638 -257 l-67 -62 -50 19 c-27 11 -77 27
            -110 37 l-60 17 95 94 c149 147 301 239 500 303 58 19 139 39 180 45 41 6 86
            13 100 15 48 9 256 -3 327 -18z m-2097 -570 c214 -33 545 -91 583 -102 13 -4
            17 -16 17 -48 l0 -43 -52 9 c-122 20 -251 -29 -284 -108 -36 -87 -1 -161 104
            -213 63 -32 267 -86 522 -137 185 -38 238 -45 296 -41 117 9 195 63 209 145
            14 86 -44 149 -177 191 l-76 24 19 41 c10 22 22 42 27 44 12 4 179 -36 417
            -99 307 -81 424 -118 465 -145 74 -49 130 -163 130 -264 0 -88 -176 -973 -315
            -1585 -147 -645 -341 -1398 -381 -1477 -47 -93 -138 -161 -234 -174 -71 -9
            -773 115 -1275 227 -403 90 -934 228 -993 258 -77 40 -143 141 -157 241 -10
            68 116 832 225 1365 138 672 386 1648 446 1753 55 95 136 149 254 171 3 0 106
            -15 230 -33z m942 -12 c66 -21 150 -56 165 -69 5 -4 -79 -189 -98 -216 -54
            -76 -228 -56 -271 31 -24 46 -23 127 1 191 38 99 64 107 203 63z m-332 -309
            c8 -3 27 -23 42 -44 60 -87 238 -128 357 -82 l55 20 90 -30 c50 -16 96 -35
            103 -41 21 -17 15 -35 -14 -46 -65 -26 -98 -23 -323 23 -354 72 -504 116 -539
            159 -11 13 -8 18 21 36 28 19 44 21 113 17 44 -3 87 -8 95 -12z m2546 -1226
            c165 -246 310 -633 360 -959 24 -154 24 -429 0 -559 -47 -257 -144 -451 -298
            -596 -136 -128 -326 -205 -505 -205 -210 0 -368 103 -467 303 -66 134 -90 241
            -90 407 -1 334 109 601 504 1225 151 239 221 358 285 483 l47 94 50 -49 c27
            -26 78 -91 114 -144z"/>
            <path d="M1016 4157 c-19 -14 -75 -239 -76 -304 0 -61 86 -85 110 -30 6 12 19
            62 29 110 11 49 22 91 24 94 3 3 40 -2 82 -11 96 -20 110 -20 129 0 23 22 21
            81 -3 94 -20 10 -238 60 -264 60 -7 0 -21 -6 -31 -13z"/>
            <path d="M1748 3465 c-350 -67 -631 -333 -728 -690 -31 -114 -39 -329 -15
            -445 63 -312 267 -561 566 -691 129 -56 219 -79 334 -86 426 -25 832 268 961
            692 25 82 28 104 28 260 1 194 -10 254 -75 393 -52 112 -111 193 -209 285
            -205 193 -411 284 -660 292 -84 3 -150 0 -202 -10z m302 -119 c220 -40 438
            -185 566 -378 158 -237 178 -547 54 -805 -57 -117 -200 -289 -244 -293 -5 -1
            -17 23 -26 52 -91 295 -405 502 -694 459 -85 -12 -260 -68 -335 -105 -25 -13
            -77 -44 -113 -69 l-67 -44 -19 46 c-45 103 -57 170 -56 316 0 122 4 151 27
            228 32 104 74 190 132 272 173 244 485 373 775 321z m-124 -1107 c171 -55 321
            -215 367 -392 l16 -59 -65 -29 c-134 -61 -294 -81 -442 -55 -185 32 -322 104
            -455 238 l-77 79 49 42 c69 59 197 135 278 164 121 44 218 47 329 12z"/>
            <path d="M1920 3075 c-104 -32 -180 -138 -180 -250 0 -162 140 -285 310 -273
            152 11 253 117 252 263 -1 84 -24 136 -89 195 -82 75 -185 98 -293 65z"/>
            <path d="M936 1488 c-21 -29 -20 -51 2 -76 14 -17 132 -45 647 -156 347 -75
            636 -136 643 -136 20 0 52 39 52 63 0 13 -9 32 -19 41 -14 13 -208 59 -641
            152 -342 74 -633 134 -646 134 -12 0 -30 -10 -38 -22z"/>
            <path d="M823 970 c-43 -17 -40 -101 4 -113 99 -29 872 -187 890 -182 41 10
            53 76 19 104 -9 8 -437 104 -871 195 -11 2 -30 0 -42 -4z"/>
            <path d="M2717 758 c-10 -8 -25 -54 -40 -123 -27 -125 -14 -116 -139 -95 -72
            13 -79 12 -98 -5 -25 -22 -26 -67 -2 -87 9 -9 74 -28 145 -43 172 -36 163 -43
            206 159 32 147 33 157 17 181 -18 28 -61 34 -89 13z"/>
        </g>
    </symbol>

    <symbol id="6" viewBox="0 0 512.000000 512.000000">
        <g transform="translate(0.000000,512.000000) scale(0.100000,-0.100000)">
            <path d="M1057 5022 c-12 -13 -17 -37 -17 -80 l0 -62 -140 0 c-127 0 -142 -2
            -160 -20 -27 -27 -28 -100 -2 -123 15 -14 42 -17 160 -17 l142 0 0 -85 c0 -81
            -1 -86 -24 -95 -43 -16 -104 -79 -122 -125 -26 -69 -17 -169 21 -231 88 -141
            322 -141 410 0 38 62 47 162 21 231 -18 46 -79 109 -122 125 -23 9 -24 14 -24
            95 l0 85 400 0 400 0 0 -85 c0 -81 -1 -86 -24 -95 -43 -16 -104 -79 -122 -125
            -26 -69 -17 -169 21 -231 88 -141 322 -141 410 0 38 62 47 162 21 231 -18 46
            -79 109 -122 125 -23 9 -24 14 -24 95 l0 85 400 0 400 0 0 -85 c0 -81 -1 -86
            -24 -95 -43 -16 -104 -79 -122 -125 -26 -69 -17 -169 21 -231 88 -141 322
            -141 410 0 38 62 47 162 21 231 -18 46 -79 109 -122 125 -23 9 -24 14 -24 95
            l0 85 400 0 400 0 0 -85 c0 -81 -1 -86 -24 -95 -43 -16 -104 -79 -122 -125
            -11 -31 -15 -65 -12 -113 5 -94 42 -155 117 -194 115 -60 263 -26 326 76 38
            62 47 162 21 231 -18 46 -79 109 -122 125 -23 9 -24 14 -24 95 l0 85 355 0
            c406 0 416 -2 434 -67 7 -23 11 -171 11 -385 l0 -348 -223 0 c-256 0 -257 0
            -257 -82 0 -77 3 -78 258 -78 l222 0 0 -1434 0 -1434 -57 15 c-175 45 -326
            184 -384 351 -11 31 -24 92 -29 134 -5 43 -14 87 -20 98 -17 32 -55 42 -93 26
            -18 -8 -423 -298 -902 -645 l-870 -631 -1112 2 -1113 3 -27 28 -28 27 -3 345
            -3 344 -26 21 c-33 26 -73 26 -107 -1 l-27 -21 3 -372 3 -373 30 -49 c19 -30
            49 -60 79 -79 l49 -30 2301 -3 c1546 -2 2313 0 2336 7 49 14 119 76 141 125
            18 39 19 126 19 2264 0 2437 5 2252 -61 2327 -66 75 -65 75 -506 75 l-393 0 0
            63 c0 78 -16 97 -82 97 -62 0 -78 -20 -78 -98 l0 -62 -400 0 -400 0 0 63 c0
            78 -16 97 -82 97 -62 0 -78 -20 -78 -98 l0 -62 -400 0 -400 0 0 63 c0 78 -16
            97 -82 97 -62 0 -78 -20 -78 -98 l0 -62 -400 0 -400 0 0 63 c0 49 -4 68 -18
            80 -26 24 -104 23 -125 -1z m115 -649 c23 -20 24 -80 1 -105 -20 -23 -80 -24
            -105 -1 -23 20 -24 80 -1 105 20 23 80 24 105 1z m960 0 c23 -20 24 -80 1
            -105 -20 -23 -80 -24 -105 -1 -23 20 -24 80 -1 105 20 23 80 24 105 1z m960 0
            c23 -20 24 -80 1 -105 -20 -23 -80 -24 -105 -1 -23 20 -24 80 -1 105 20 23 80
            24 105 1z m960 0 c23 -20 24 -80 1 -105 -20 -23 -80 -24 -105 -1 -23 20 -24
            80 -1 105 20 23 80 24 105 1z m212 -3128 c4 -19 27 -74 51 -122 62 -123 149
            -222 258 -291 l49 -31 -39 -10 c-844 -226 -1577 -420 -1579 -418 -3 3 1240
            907 1247 907 4 0 10 -16 13 -35z m616 -735 c0 -216 -7 -243 -68 -259 -27 -8
            -292 -10 -821 -9 l-782 3 828 222 c455 121 831 221 836 222 4 1 7 -80 7 -179z"/>
            <path d="M212 4854 c-56 -28 -92 -67 -117 -127 -13 -32 -15 -214 -15 -1551 l0
            -1515 22 -21 c29 -27 87 -27 116 0 l22 21 0 1049 0 1050 1958 0 1959 0 19 21
            c25 27 25 91 0 118 l-19 21 -1959 0 -1959 0 3 370 3 370 28 27 c26 26 33 28
            137 31 93 4 111 7 127 24 24 26 23 90 -1 117 -17 19 -30 21 -146 21 -116 0
            -130 -2 -178 -26z"/>
            <path d="M4417 4542 c-23 -26 -23 -104 1 -125 11 -10 40 -17 77 -19 l60 -3 3
            -60 c4 -77 20 -95 82 -95 72 0 83 17 78 132 -3 106 -21 143 -82 172 -51 24
            -197 23 -219 -2z"/>
            <path d="M665 3583 c-44 -23 -65 -44 -86 -85 -17 -32 -19 -60 -19 -218 0 -147
            3 -187 16 -213 23 -45 44 -66 86 -88 32 -17 60 -19 219 -19 177 0 184 1 225
            25 26 15 54 43 69 69 24 41 25 48 25 225 0 159 -2 187 -19 219 -22 42 -43 63
            -88 86 -46 23 -384 23 -428 -1z m355 -163 c18 -18 20 -33 20 -140 0 -107 -2
            -122 -20 -140 -18 -18 -33 -20 -140 -20 -161 0 -160 -1 -160 160 0 107 2 122
            20 140 18 18 33 20 140 20 107 0 122 -2 140 -20z"/>
            <path d="M1785 3583 c-44 -23 -65 -44 -86 -85 -17 -32 -19 -60 -19 -218 0
            -147 3 -187 16 -213 23 -45 44 -66 86 -88 32 -17 60 -19 219 -19 177 0 184 1
            225 25 60 35 94 96 94 167 0 69 -18 88 -82 88 -50 0 -78 -21 -78 -58 0 -12 -9
            -31 -20 -42 -18 -18 -33 -20 -140 -20 -161 0 -160 -1 -160 160 0 107 2 122 20
            140 18 18 33 20 140 20 107 0 122 -2 140 -20 11 -11 20 -31 20 -43 0 -36 30
            -57 82 -57 60 0 78 20 78 89 0 81 -35 138 -107 175 -46 23 -384 23 -428 -1z"/>
            <path d="M2905 3583 c-44 -23 -65 -44 -86 -85 -17 -32 -19 -60 -19 -218 0
            -147 3 -187 16 -213 23 -45 44 -66 86 -88 32 -17 60 -19 219 -19 177 0 184 1
            225 25 26 15 54 43 69 69 24 41 25 48 25 225 0 159 -2 187 -19 219 -22 42 -43
            63 -88 86 -46 23 -384 23 -428 -1z m355 -163 c18 -18 20 -33 20 -140 0 -107
            -2 -122 -20 -140 -18 -18 -33 -20 -140 -20 -107 0 -122 2 -140 20 -18 18 -20
            33 -20 140 0 107 2 122 20 140 18 18 33 20 140 20 107 0 122 -2 140 -20z"/>
            <path d="M4025 3583 c-44 -23 -65 -44 -86 -85 -17 -32 -19 -60 -19 -218 0
            -188 5 -213 49 -264 29 -33 88 -56 144 -56 68 0 87 18 87 82 0 50 -21 78 -58
            78 -12 0 -31 9 -42 20 -18 18 -20 33 -20 140 0 107 2 122 20 140 18 18 33 20
            140 20 107 0 122 -2 140 -20 18 -18 20 -33 20 -140 0 -107 -2 -122 -20 -140
            -11 -11 -31 -20 -43 -20 -36 0 -57 -30 -57 -82 0 -60 20 -78 90 -78 69 0 130
            35 165 94 24 41 25 48 25 225 0 159 -2 187 -19 219 -22 42 -43 63 -88 86 -46
            23 -384 23 -428 -1z"/>
            <path d="M665 2623 c-71 -37 -105 -94 -105 -176 0 -68 18 -87 82 -87 50 0 78
            21 78 58 0 12 9 31 20 42 18 18 33 20 140 20 161 0 160 1 160 -160 0 -161 1
            -160 -160 -160 -107 0 -122 2 -140 20 -11 11 -20 31 -20 43 0 36 -30 57 -82
            57 -60 0 -78 -20 -78 -89 0 -79 35 -138 102 -172 32 -17 60 -19 219 -19 177 0
            184 1 225 25 26 15 54 43 69 69 24 41 25 48 25 225 0 159 -2 187 -19 219 -22
            42 -43 63 -88 86 -46 23 -384 23 -428 -1z"/>
            <path d="M1785 2623 c-44 -23 -65 -44 -86 -85 -17 -32 -19 -60 -19 -218 0
            -147 3 -187 16 -213 23 -45 44 -66 86 -88 32 -17 60 -19 219 -19 177 0 184 1
            225 25 26 15 54 43 69 69 24 41 25 48 25 225 0 159 -2 187 -19 219 -22 42 -43
            63 -88 86 -46 23 -384 23 -428 -1z m355 -163 c18 -18 20 -33 20 -140 0 -107
            -2 -122 -20 -140 -18 -18 -33 -20 -140 -20 -107 0 -122 2 -140 20 -18 18 -20
            33 -20 140 0 107 2 122 20 140 18 18 33 20 140 20 107 0 122 -2 140 -20z"/>
            <path d="M2905 2623 c-44 -23 -65 -44 -86 -85 -17 -32 -19 -60 -19 -218 0
            -147 3 -187 16 -213 23 -45 44 -66 86 -88 32 -17 60 -19 219 -19 177 0 184 1
            225 25 26 15 54 43 69 69 24 41 25 48 25 225 0 159 -2 187 -19 219 -22 42 -43
            63 -88 86 -46 23 -384 23 -428 -1z m355 -163 c18 -18 20 -33 20 -140 0 -107
            -2 -122 -20 -140 -18 -18 -33 -20 -140 -20 -161 0 -160 -1 -160 160 0 107 2
            122 20 140 18 18 33 20 140 20 107 0 122 -2 140 -20z"/>
            <path d="M4025 2623 c-44 -23 -65 -44 -86 -85 -17 -32 -19 -60 -19 -218 0
            -147 3 -187 16 -213 23 -45 44 -66 86 -88 32 -17 60 -19 219 -19 177 0 184 1
            225 25 26 15 54 43 69 69 24 41 25 48 25 225 0 159 -2 187 -19 219 -22 42 -43
            63 -88 86 -46 23 -384 23 -428 -1z m355 -163 c18 -18 20 -33 20 -140 0 -107
            -2 -122 -20 -140 -18 -18 -33 -20 -140 -20 -161 0 -160 -1 -160 160 0 107 2
            122 20 140 18 18 33 20 140 20 107 0 122 -2 140 -20z"/>
            <path d="M665 1663 c-44 -23 -65 -44 -86 -85 -17 -32 -19 -60 -19 -218 0 -147
            3 -187 16 -213 23 -45 44 -66 86 -88 32 -17 60 -19 219 -19 177 0 184 1 225
            25 26 15 54 43 69 69 24 41 25 48 25 225 0 159 -2 187 -19 219 -22 42 -43 63
            -88 86 -46 23 -384 23 -428 -1z m355 -163 c18 -18 20 -33 20 -140 0 -107 -2
            -122 -20 -140 -18 -18 -33 -20 -140 -20 -107 0 -122 2 -140 20 -18 18 -20 33
            -20 140 0 107 2 122 20 140 18 18 33 20 140 20 107 0 122 -2 140 -20z"/>
            <path d="M1785 1663 c-44 -23 -65 -44 -86 -85 -17 -32 -19 -60 -19 -218 0
            -147 3 -187 16 -213 23 -45 44 -66 86 -88 32 -17 60 -19 219 -19 177 0 184 1
            225 25 26 15 54 43 69 69 24 41 25 48 25 225 0 159 -2 187 -19 219 -22 42 -43
            63 -88 86 -46 23 -384 23 -428 -1z m355 -163 c18 -18 20 -33 20 -140 0 -107
            -2 -122 -20 -140 -18 -18 -33 -20 -140 -20 -107 0 -122 2 -140 20 -18 18 -20
            33 -20 140 0 107 2 122 20 140 18 18 33 20 140 20 107 0 122 -2 140 -20z"/>
            <path d="M2905 1663 c-44 -23 -65 -44 -86 -85 -17 -32 -19 -60 -19 -218 0
            -147 3 -187 16 -213 23 -45 44 -66 86 -88 32 -17 60 -19 219 -19 177 0 184 1
            225 25 26 15 54 43 69 69 24 41 25 48 25 225 0 159 -2 187 -19 219 -35 68 -93
            102 -174 102 -68 0 -87 -18 -87 -82 0 -50 21 -78 58 -78 12 0 31 -9 42 -20 18
            -18 20 -33 20 -140 0 -161 1 -160 -160 -160 -161 0 -160 -1 -160 160 0 107 2
            122 20 140 11 11 31 20 43 20 36 0 57 30 57 82 0 61 -20 78 -91 78 -30 -1 -67
            -8 -84 -17z"/>
            <path d="M97 1422 c-13 -15 -17 -39 -17 -115 0 -91 1 -96 26 -116 34 -27 74
            -27 108 0 25 20 26 25 26 118 0 82 -3 101 -18 114 -26 24 -104 23 -125 -1z"/>
            <path d="M417 862 c-14 -16 -17 -44 -17 -184 0 -155 1 -167 23 -198 48 -71 60
            -75 249 -78 200 -4 208 -1 208 78 0 74 -12 80 -166 80 -88 0 -134 4 -142 12
            -8 8 -12 55 -12 143 0 115 -2 134 -18 148 -26 24 -104 23 -125 -1z"/>
            <path d="M1057 542 c-24 -26 -23 -104 1 -125 15 -14 41 -17 144 -17 146 0 158
            6 158 82 0 71 -13 78 -162 78 -108 0 -127 -2 -141 -18z"/>
        </g>
    </symbol>

    <symbol id="7" viewBox="0 0 512.000000 512.000000">
        <g transform="translate(0.000000,512.000000) scale(0.100000,-0.100000)">
            <path d="M2336 4858 c-81 -7 -104 -12 -123 -30 -27 -25 -30 -64 -8 -95 15 -22
            17 -22 253 -16 159 4 272 2 342 -6 110 -13 284 -47 311 -61 27 -15 70 -307 84
            -577 l7 -123 -43 -2 c-276 -10 -659 30 -938 98 -274 67 -596 195 -790 314
            l-34 21 34 23 c109 73 333 175 482 221 46 14 92 34 101 44 25 28 17 79 -16
            104 -27 20 -29 20 -90 3 -239 -67 -517 -207 -747 -378 -128 -95 -348 -317
            -447 -450 -211 -283 -353 -601 -418 -936 -152 -781 95 -1570 663 -2114 190
            -182 364 -302 606 -419 224 -108 425 -169 674 -206 161 -24 494 -23 651 1 309
            48 591 148 848 300 757 450 1196 1299 1122 2171 -45 545 -263 1028 -640 1419
            -489 507 -1169 758 -1884 694z m1060 -303 c130 -55 228 -107 352 -188 l92 -61
            0 -123 c0 -286 -72 -752 -185 -1188 -57 -222 -93 -335 -172 -535 -194 -491
            -454 -914 -800 -1299 -46 -51 -73 -90 -73 -104 0 -53 58 -89 104 -65 14 7 62
            54 107 103 374 409 686 954 878 1532 127 382 241 923 271 1288 6 77 14 169 17
            205 l5 65 117 -120 c147 -152 247 -285 243 -323 -2 -15 -21 -137 -43 -272
            -109 -666 -267 -1216 -461 -1605 -230 -463 -609 -941 -1086 -1371 l-106 -97
            -181 6 c-173 5 -272 18 -417 53 l-68 16 98 50 c164 85 395 243 428 294 30 45
            -3 104 -58 104 -22 0 -55 -18 -117 -63 -173 -128 -303 -204 -464 -271 l-103
            -44 -105 47 c-102 46 -319 168 -319 181 0 3 35 23 78 44 472 233 959 655 1282
            1111 356 505 567 1092 619 1728 24 289 4 704 -44 925 -3 12 -3 22 -1 22 2 0
            53 -20 112 -45z m-2010 -338 c458 -264 1078 -417 1688 -417 l119 0 -6 -106
            c-9 -154 -47 -403 -66 -421 -12 -13 -42 -14 -200 -9 -731 26 -1270 163 -1789
            453 -88 49 -242 145 -271 169 -15 13 184 224 312 331 83 69 90 73 110 60 12
            -8 58 -35 103 -60z m-496 -526 c224 -147 575 -310 835 -389 357 -109 730 -167
            1146 -179 l227 -6 -20 -71 c-33 -118 -94 -298 -138 -404 l-42 -100 -110 -7
            c-197 -13 -598 14 -848 56 -387 66 -767 195 -1083 369 -95 52 -286 175 -350
            224 -17 13 -16 19 19 112 52 141 105 251 176 370 34 57 63 104 64 104 2 0 57
            -36 124 -79z m3640 -238 c83 -189 127 -331 167 -543 14 -75 18 -148 18 -350 0
            -222 -3 -270 -22 -370 -88 -460 -283 -832 -607 -1156 -232 -232 -462 -381
            -771 -501 -92 -35 -339 -103 -377 -103 -16 0 32 54 183 208 112 114 242 252
            288 307 405 486 644 919 806 1457 91 303 215 836 247 1061 6 48 15 87 19 87 4
            0 26 -44 49 -97z m-3980 -479 c312 -213 732 -390 1150 -484 273 -62 524 -90
            863 -99 l257 -6 -56 -100 c-66 -117 -150 -244 -245 -371 -106 -140 -75 -128
            -322 -121 -245 8 -353 18 -563 52 -409 68 -798 207 -1136 407 l-87 52 -7 64
            c-11 101 2 447 21 547 21 118 24 127 39 118 6 -5 45 -31 86 -59z m-13 -912
            c462 -249 1004 -391 1571 -409 l184 -6 -79 -79 c-244 -248 -556 -474 -872
            -633 l-131 -67 -58 50 c-101 88 -247 245 -326 351 -125 168 -202 306 -279 501
            -41 102 -112 340 -102 340 2 0 44 -21 92 -48z"/>
        </g>
    </symbol>

    <symbol id="8" viewBox="0 0 512.000000 512.000000">
        <g transform="translate(0.000000,512.000000) scale(0.100000,-0.100000)">
            <path d="M1698 4959 c-125 -17 -246 -106 -304 -224 -27 -56 -29 -68 -29 -175
            0 -107 2 -119 29 -175 79 -159 247 -248 426 -223 128 17 248 105 307 225 26
            54 28 67 28 173 0 105 -2 120 -27 170 -83 169 -243 254 -430 229z m167 -191
            c116 -61 161 -204 100 -317 -76 -138 -258 -165 -369 -55 -134 134 -61 360 127
            393 49 8 100 1 142 -21z"/>
            <path d="M1300 3987 c-77 -28 -617 -312 -648 -341 -19 -17 -40 -42 -47 -56 -7
            -14 -39 -158 -70 -320 -52 -269 -56 -300 -46 -346 22 -98 105 -163 209 -164
            63 0 109 19 153 64 41 41 45 51 90 266 22 102 42 193 45 202 3 11 50 32 142
            62 75 25 140 46 144 46 4 0 9 -174 10 -387 l3 -388 26 -57 c19 -38 62 -92 138
            -172 61 -64 111 -119 111 -123 0 -13 -142 -477 -151 -495 -17 -32 -64 -47
            -221 -73 -84 -13 -268 -45 -408 -69 -236 -41 -256 -46 -277 -71 -31 -36 -29
            -70 6 -106 36 -35 41 -35 228 -4 81 14 266 46 411 71 278 47 315 58 368 116
            46 48 64 92 124 293 29 99 55 183 59 187 10 12 222 -221 241 -266 10 -23 46
            -220 81 -444 67 -426 69 -434 124 -448 37 -9 81 13 95 47 11 25 3 89 -54 447
            -61 388 -68 422 -101 487 -29 61 -73 111 -316 365 -154 162 -291 313 -302 335
            -21 39 -22 52 -25 482 l-3 443 -26 20 c-14 11 -35 20 -47 20 -11 0 -130 -37
            -264 -82 -176 -59 -246 -87 -256 -103 -7 -11 -34 -121 -60 -245 -26 -123 -51
            -230 -57 -237 -16 -19 -57 -16 -68 5 -11 20 88 555 105 571 5 5 140 77 301
            160 l292 151 340 0 c213 0 350 -4 367 -11 16 -5 123 -71 239 -145 172 -109
            218 -134 248 -134 29 0 73 23 213 110 104 65 186 110 197 108 29 -4 45 -33 31
            -55 -13 -21 -422 -281 -443 -282 -8 -1 -51 19 -97 44 -100 55 -151 60 -183 19
            -25 -31 -27 -71 -6 -101 8 -12 59 -45 113 -73 106 -56 173 -71 234 -51 20 7
            139 76 264 155 277 174 289 186 289 306 0 71 -3 82 -30 122 -41 58 -101 88
            -180 88 -65 0 -92 -13 -321 -157 l-81 -51 -189 121 c-104 66 -213 128 -241
            139 -48 16 -87 18 -420 18 -269 -1 -377 -4 -403 -13z"/>
            <path d="M1940 3660 c-19 -19 -20 -33 -20 -538 l0 -518 127 -194 c199 -307
            233 -362 243 -400 5 -19 30 -240 55 -490 25 -250 48 -470 51 -488 7 -48 36
            -72 84 -72 56 0 80 26 80 88 0 61 -87 923 -100 982 -15 78 -42 127 -214 390
            l-166 255 0 483 c0 469 -1 483 -20 502 -13 13 -33 20 -60 20 -27 0 -47 -7 -60
            -20z"/>
            <path d="M4290 3301 c-603 -324 -589 -314 -568 -388 7 -28 27 -44 156 -120 81
            -48 151 -90 155 -93 8 -7 -383 -668 -488 -825 -504 -758 -1203 -1247 -2035
            -1424 -224 -47 -312 -55 -624 -56 l-298 -1 -19 -23 c-21 -25 -25 -71 -9 -100
            21 -41 62 -46 345 -46 289 1 402 11 645 61 673 138 1298 497 1764 1013 240
            265 338 406 680 978 212 355 246 417 246 452 0 47 -10 56 -163 146 -54 32 -94
            61 -90 65 11 10 799 430 807 430 3 0 6 -207 6 -460 0 -253 -3 -460 -6 -460 -3
            0 -58 32 -123 70 -126 75 -174 87 -208 52 -10 -9 -116 -182 -235 -383 -234
            -392 -243 -414 -198 -459 20 -20 71 -27 105 -14 9 4 102 151 207 328 105 176
            196 326 202 333 8 9 48 -11 160 -78 90 -53 160 -89 176 -89 15 0 39 9 54 21
            l26 20 0 653 0 653 -23 21 c-47 44 -58 39 -647 -277z"/>
            <path d="M1206 2387 c-10 -8 -35 -71 -61 -156 -25 -79 -46 -146 -49 -148 -2
            -3 -154 -45 -338 -94 -183 -49 -356 -101 -384 -114 -65 -32 -148 -119 -182
            -192 -19 -42 -27 -78 -30 -134 -4 -73 -3 -77 23 -97 60 -47 129 -14 140 66 4
            26 11 61 16 77 13 43 64 102 107 124 21 10 199 62 397 115 273 74 365 102 381
            119 25 26 114 315 114 371 0 48 -28 76 -78 76 -21 0 -46 -6 -56 -13z"/>
            <path d="M3859 1571 c-36 -36 -37 -70 -3 -110 35 -42 84 -43 125 -2 37 38 39
            82 4 116 -35 36 -88 34 -126 -4z"/>
            <path d="M4820 1580 c-15 -15 -20 -33 -20 -69 0 -59 22 -81 81 -81 48 0 79 36
            79 91 0 52 -27 79 -80 79 -27 0 -47 -7 -60 -20z"/>
            <path d="M4820 1260 c-15 -15 -20 -33 -20 -69 0 -59 22 -81 81 -81 48 0 79 36
            79 91 0 52 -27 79 -80 79 -27 0 -47 -7 -60 -20z"/>
            <path d="M4820 940 c-15 -15 -20 -33 -20 -69 0 -59 22 -81 81 -81 48 0 79 36
            79 91 0 52 -27 79 -80 79 -27 0 -47 -7 -60 -20z"/>
        </g>
    </symbol>

    <symbol id="9" viewBox="0 0 512.000000 512.000000">
        <g transform="translate(0.000000,512.000000) scale(0.100000,-0.100000)">
            <path d="M1405 5034 c-349 -50 -635 -193 -881 -438 -214 -214 -340 -441 -411
            -736 -35 -145 -44 -430 -18 -582 72 -430 302 -786 670 -1033 90 -60 247 -135
            355 -170 l85 -27 -3 -887 c-2 -629 0 -897 8 -924 14 -49 74 -115 125 -138 35
            -16 69 -19 265 -19 196 0 230 3 265 19 51 23 111 89 125 138 8 27 10 295 8
            924 l-3 885 85 27 c95 31 257 107 340 160 l55 36 5 -328 c6 -362 5 -360 73
            -401 31 -19 60 -20 1207 -20 1155 0 1176 0 1208 20 18 11 41 34 52 52 19 32
            20 52 20 488 0 433 -1 457 -20 487 -10 18 -31 40 -47 50 -26 17 -87 18 -1074
            23 l-1047 5 40 65 c22 36 60 107 84 158 l44 92 958 0 c937 0 958 0 990 20 18
            11 41 34 52 52 19 32 20 52 20 488 0 436 -1 456 -20 488 -11 18 -34 41 -52 52
            -32 20 -53 20 -990 20 l-957 0 -46 97 c-74 158 -165 284 -299 419 -216 215
            -450 344 -755 416 -68 16 -129 21 -286 23 -110 2 -213 1 -230 -1z m326 -168
            c47 -3 131 -17 188 -32 372 -93 679 -328 865 -659 25 -45 46 -85 46 -88 0 -4
            -36 -7 -79 -7 l-79 0 -65 98 c-84 126 -168 216 -275 297 -155 117 -340 198
            -521 230 -109 19 -315 19 -427 0 -480 -84 -865 -461 -963 -942 -29 -140 -29
            -346 0 -486 98 -481 483 -858 963 -942 112 -19 318 -19 427 0 320 56 611 248
            793 523 l68 102 79 0 c78 0 78 0 70 -23 -16 -40 -99 -176 -146 -238 -32 -40
            -53 -59 -68 -59 -52 0 -127 -75 -127 -128 0 -46 -271 -214 -439 -271 -378
            -129 -800 -85 -1134 118 -317 192 -533 485 -625 848 -25 100 -27 123 -27 313
            0 190 2 213 27 313 110 432 403 773 810 941 150 62 414 112 528 100 14 -2 64
            -5 111 -8z m64 -332 c187 -36 364 -127 507 -263 78 -74 158 -167 158 -185 0
            -3 -116 -6 -257 -6 -240 0 -260 -1 -291 -20 -18 -11 -41 -34 -52 -52 -19 -32
            -20 -52 -20 -488 0 -436 1 -456 20 -488 11 -18 34 -41 52 -52 31 -19 51 -20
            291 -20 141 0 257 -3 257 -6 0 -18 -80 -111 -158 -185 -142 -134 -315 -224
            -507 -264 -93 -19 -275 -21 -366 -5 -396 72 -706 351 -826 745 -25 84 -27 102
            -27 275 0 173 2 191 27 275 161 528 664 840 1192 739z m1165 -1014 l0 -400
            -480 0 -480 0 0 400 0 400 480 0 480 0 0 -400z m1920 0 l0 -400 -880 0 -880 0
            0 400 0 400 880 0 880 0 0 -400z m-1120 -1440 l0 -400 -560 0 -560 0 0 400 0
            400 560 0 560 0 0 -400z m1120 0 l0 -400 -480 0 -480 0 0 400 0 400 480 0 480
            0 0 -400z m-3055 -95 c4 -11 9 -84 12 -162 l6 -143 -243 0 -243 0 6 143 c3 78
            8 151 12 162 6 19 15 20 225 20 210 0 219 -1 225 -20z m15 -1060 c0 -659 1
            -652 -60 -674 -43 -15 -317 -15 -360 0 -61 22 -60 15 -60 674 l0 595 240 0
            240 0 0 -595z"/>
            <path d="M2528 3613 l-208 -208 -50 50 -50 50 -63 -63 -62 -62 113 -112 112
            -113 272 272 273 273 -60 60 c-33 33 -62 60 -65 60 -3 0 -98 -93 -212 -207z"/>
            <path d="M3280 3520 l0 -80 80 0 80 0 0 80 0 80 -80 0 -80 0 0 -80z"/>
            <path d="M3600 3520 l0 -80 80 0 80 0 0 80 0 80 -80 0 -80 0 0 -80z"/>
            <path d="M3920 3520 l0 -80 80 0 80 0 0 80 0 80 -80 0 -80 0 0 -80z"/>
            <path d="M4240 3520 l0 -80 80 0 80 0 0 80 0 80 -80 0 -80 0 0 -80z"/>
            <path d="M4560 3520 l0 -80 80 0 80 0 0 80 0 80 -80 0 -80 0 0 -80z"/>
            <path d="M2800 2080 l0 -80 80 0 80 0 0 80 0 80 -80 0 -80 0 0 -80z"/>
            <path d="M3120 2080 l0 -80 80 0 80 0 0 80 0 80 -80 0 -80 0 0 -80z"/>
            <path d="M3440 2080 l0 -80 80 0 80 0 0 80 0 80 -80 0 -80 0 0 -80z"/>
            <path d="M4155 2320 l-59 -60 89 -90 90 -90 -90 -90 -90 -90 63 -62 62 -63 90
            90 90 90 90 -90 90 -90 62 63 63 62 -90 90 -90 90 90 90 90 90 -63 62 -62 63
            -90 -90 -90 -90 -88 88 c-48 48 -90 87 -93 87 -2 0 -31 -27 -64 -60z"/>
            <path d="M2232 1180 c-18 -11 -41 -34 -52 -52 -19 -32 -20 -52 -20 -488 0
            -436 1 -456 20 -488 11 -18 34 -41 52 -52 32 -20 53 -20 1208 -20 1155 0 1176
            0 1208 20 18 11 41 34 52 52 19 32 20 52 20 488 0 436 -1 456 -20 488 -11 18
            -34 41 -52 52 -32 20 -53 20 -1208 20 -1155 0 -1176 0 -1208 -20z m1048 -540
            l0 -400 -480 0 -480 0 0 400 0 400 480 0 480 0 0 -400z m1280 0 l0 -400 -560
            0 -560 0 0 400 0 400 560 0 560 0 0 -400z"/>
            <path d="M2848 733 l-208 -208 -50 50 -50 50 -63 -63 -62 -62 113 -112 112
            -113 272 272 273 273 -60 60 c-33 33 -62 60 -65 60 -3 0 -98 -93 -212 -207z"/>
            <path d="M3600 640 l0 -80 80 0 80 0 0 80 0 80 -80 0 -80 0 0 -80z"/>
            <path d="M3920 640 l0 -80 80 0 80 0 0 80 0 80 -80 0 -80 0 0 -80z"/>
            <path d="M4240 640 l0 -80 80 0 80 0 0 80 0 80 -80 0 -80 0 0 -80z"/>
        </g>
    </symbol>

    <symbol id="10" viewBox="0 0 512.000000 512.000000">
        <g transform="translate(0.000000,512.000000) scale(0.100000,-0.100000)">
            <path d="M4399 4935 c-20 -7 -56 -26 -79 -41 -30 -20 -358 -410 -1040 -1235
            l-997 -1206 -161 -478 c-160 -471 -174 -523 -152 -579 l10 -26 -156 0 c-151 0
            -156 -1 -179 -25 -35 -34 -35 -96 0 -130 l24 -25 891 0 891 0 24 25 c31 30 34
            92 6 126 l-19 24 -558 5 -558 5 363 204 364 205 72 85 c352 415 1922 2327
            1943 2366 24 45 27 60 27 155 0 91 -3 111 -24 150 -37 69 -61 94 -234 237
            -187 154 -225 173 -345 172 -42 0 -93 -6 -113 -14z m187 -178 c58 -33 325
            -264 339 -293 21 -45 19 -112 -6 -153 -18 -29 -273 -345 -320 -395 -17 -18
            -25 -12 -274 194 -175 145 -253 216 -247 223 121 157 342 412 366 423 39 17
            114 17 142 1z m-374 -792 l255 -210 -61 -73 c-34 -41 -68 -83 -77 -94 -16 -21
            -21 -17 -268 186 -138 114 -253 212 -256 217 -6 9 136 189 146 186 4 -1 121
            -96 261 -212z m-276 -326 c140 -116 254 -214 252 -218 -2 -4 -268 -328 -592
            -719 -401 -486 -592 -709 -600 -703 -174 141 -501 414 -500 418 1 7 1178 1432
            1182 1433 2 0 118 -95 258 -211z m-1290 -1591 l212 -174 -96 -55 c-53 -30
            -122 -68 -154 -86 l-57 -32 -129 107 -128 107 55 167 c49 147 57 166 71 154 8
            -7 110 -92 226 -188z m-342 -380 c33 -28 64 -55 68 -58 4 -3 -42 -34 -103 -68
            -61 -35 -113 -61 -115 -59 -3 3 45 156 71 225 7 19 13 16 79 -40z"/>
            <path d="M555 4515 c-217 -40 -396 -178 -490 -377 -59 -126 -65 -164 -65 -441
            0 -283 4 -299 73 -345 l41 -27 538 -3 538 -3 0 -1265 c0 -1390 -2 -1344 61
            -1482 78 -173 209 -295 394 -366 l80 -31 1400 -3 c1565 -3 1473 -7 1623 68
            135 68 236 170 303 305 40 83 69 178 69 229 0 51 -38 114 -84 141 l-43 25
            -531 0 -532 0 0 741 0 741 -29 29 c-40 39 -82 39 -122 0 l-29 -29 0 -741 0
            -741 -632 -2 -633 -3 -33 -23 c-41 -30 -61 -68 -78 -151 -40 -190 -178 -341
            -363 -395 -77 -23 -204 -21 -284 4 -124 38 -239 136 -298 252 -62 122 -59 37
            -59 1738 0 1324 -3 1565 -15 1625 -19 93 -92 237 -155 308 l-52 57 1064 0
            c1149 0 1132 0 1248 -54 69 -32 101 -33 137 -2 22 19 28 33 28 64 0 51 -19 72
            -97 107 -141 64 -32 59 -1533 61 -1095 2 -1384 0 -1440 -11z m205 -175 c177
            -29 332 -157 400 -335 22 -55 24 -79 28 -282 l4 -223 -506 0 -506 0 0 208 c0
            230 7 271 61 372 67 126 197 224 339 254 81 18 99 18 180 6z m4163 -3622 c-50
            -171 -182 -302 -352 -352 -49 -14 -176 -16 -1139 -16 l-1084 0 51 56 c76 86
            125 188 155 326 l6 28 943 3 c518 1 1053 3 1189 5 l247 2 -16 -52z"/>
            <path d="M1645 4075 c-31 -30 -34 -92 -6 -126 l19 -24 794 -3 c436 -1 803 0
            816 3 63 15 85 103 37 150 l-24 25 -806 0 -806 0 -24 -25z"/>
            <path d="M1641 3644 c-30 -38 -28 -94 5 -125 l26 -24 628 0 628 0 26 24 c35
            33 36 98 3 129 l-23 22 -636 0 -637 0 -20 -26z"/>
            <path d="M1665 3238 c-52 -30 -62 -102 -20 -143 l24 -25 456 0 456 0 24 25
            c38 37 35 95 -6 129 l-31 26 -441 0 c-314 -1 -448 -4 -462 -12z"/>
            <path d="M1645 2795 c-31 -30 -34 -92 -6 -126 l19 -24 281 -3 282 -3 29 30
            c32 31 38 63 19 104 -20 44 -44 47 -330 47 l-270 0 -24 -25z"/>
        </g>
    </symbol>
</svg>
