<svg version="1.0" xmlns="http://www.w3.org/2000/svg">

    <symbol id="link" viewBox="0 0 512.000000 512.000000">
        <g transform="translate(0.000000,512.000000) scale(0.100000,-0.100000)">
            <path d="M953 4689 c-127 -21 -249 -87 -346 -185 -73 -73 -117 -146 -154 -249
            l-28 -80 0 -1615 0 -1615 27 -76 c76 -214 227 -359 444 -426 56 -17 136 -18
            1664 -18 1528 0 1608 1 1665 18 222 68 383 230 452 453 17 55 18 111 18 831
            l0 772 -29 30 -30 31 -156 0 -156 0 -30 -31 -29 -30 -5 -747 c-5 -821 -2 -772
            -67 -834 -65 -62 45 -58 -1633 -58 -1361 0 -1535 2 -1568 16 -49 20 -90 60
            -113 109 -18 38 -19 102 -19 1573 0 1680 -4 1570 58 1635 62 65 13 62 834 67
            l747 5 30 29 31 30 0 156 0 156 -31 30 -30 29 -747 1 c-411 1 -770 -2 -799 -7z"/>
            <path d="M3469 4677 c-57 -38 -76 -107 -45 -165 8 -15 83 -94 166 -177 162
            -161 185 -192 175 -234 -4 -17 -237 -257 -666 -686 l-659 -661 0 -54 0 -54
            103 -103 103 -103 54 0 54 0 661 659 c429 429 669 662 686 666 42 10 73 -13
            234 -175 83 -83 162 -158 177 -166 58 -31 127 -12 165 45 l23 34 0 546 c0 611
            1 598 -70 633 -32 16 -81 18 -581 18 l-546 0 -34 -23z"/>
        </g>
    </symbol>

    <symbol id="tick" viewBox="0 0 512.000000 512.000000">
        <g transform="translate(0.000000,512.000000) scale(0.100000,-0.100000)">
            <path d="M4599 4732 c-14 -9 -589 -654 -1277 -1432 -688 -778 -1266 -1424
            -1283 -1434 -29 -18 -35 -18 -70 -5 -25 9 -182 146 -476 413 -391 357 -445
            403 -513 435 -66 31 -86 36 -171 39 -152 6 -249 -29 -351 -126 -66 -63 -120
            -160 -139 -249 -23 -113 5 -257 69 -351 15 -22 303 -378 641 -792 484 -593
            624 -759 665 -786 78 -52 152 -74 246 -74 130 0 236 44 325 136 27 27 517 807
            1271 2021 675 1088 1238 1996 1251 2018 12 22 23 53 23 68 0 43 -29 97 -64
            118 -39 24 -112 25 -147 1z"/>
        </g>
    </symbol>

    <symbol id="people" viewBox="0 0 512.000000 512.000000">
        <g transform="translate(0.000000,512.000000) scale(0.100000,-0.100000)">
            <path d="M2075 5100 c-409 -86 -742 -382 -874 -776 -77 -230 -81 -498 -10
            -730 95 -315 360 -607 666 -734 256 -107 572 -120 829 -34 798 267 1070 1250
            524 1891 -166 195 -397 329 -657 382 -134 28 -348 28 -478 1z m480 -341 c89
            -26 218 -94 297 -156 119 -94 228 -257 277 -417 121 -392 -77 -831 -453 -1007
            -154 -72 -348 -97 -512 -66 -399 76 -694 429 -694 831 0 333 198 638 505 777
            171 77 399 93 580 38z"/>
            <path d="M2035 2289 c-323 -41 -665 -168 -935 -347 -563 -374 -917 -1002 -947
            -1678 -6 -135 -5 -143 18 -183 13 -23 37 -51 55 -61 31 -20 63 -20 1726 -20
            l1695 0 33 23 c99 66 99 208 0 274 l-33 23 -1578 0 -1579 0 0 28 c0 61 42 258
            80 373 132 403 410 756 772 981 174 108 391 193 608 238 133 28 401 38 548 21
            339 -40 664 -178 942 -401 78 -62 115 -76 180 -67 79 10 132 73 133 157 1 62
            -24 102 -108 172 -285 240 -685 412 -1073 462 -134 17 -417 20 -537 5z"/>
            <path d="M4231 1558 c-88 -45 -100 -85 -101 -320 l0 -167 -199 -3 c-184 -3
            -202 -5 -228 -24 -99 -74 -99 -204 0 -278 26 -19 44 -21 228 -24 l199 -3 0
            -172 c0 -95 5 -189 11 -210 31 -114 164 -161 257 -91 58 45 62 62 62 278 l0
            195 204 3 c224 3 230 5 280 72 30 39 30 143 0 182 -50 67 -56 69 -280 72
            l-204 3 0 198 c0 189 -1 200 -23 231 -47 71 -134 96 -206 58z"/>
        </g>
    </symbol>

    <symbol id="like" viewBox="0 0 512.000000 512.000000">
        <linearGradient id="gradient">
        <stop offset="0" stop-color="#91C041"></stop>
        <stop offset="100%" stop-color="#419A1F"></stop>
    </linearGradient>

        <g transform="translate(0.000000,512.000000) scale(0.100000,-0.100000)" fill="url(#gradient)">
            <path d="M3330 4840 c-108 -19 -196 -83 -263 -193 -196 -321 -258 -418 -383
            -604 -271 -403 -500 -690 -753 -942 l-154 -153 -29 61 c-33 69 -94 122 -163
            141 -28 8 -246 10 -720 8 -680 -3 -680 -3 -721 -25 -54 -29 -117 -101 -132
            -151 -9 -29 -12 -357 -12 -1274 l0 -1234 26 -52 c29 -58 69 -96 134 -126 44
            -21 56 -21 725 -21 l680 0 57 28 c32 16 72 46 90 67 l33 38 90 -54 c50 -30
            106 -59 125 -64 22 -6 466 -10 1201 -10 1292 0 1216 -4 1297 66 22 19 49 53
            61 77 11 23 151 596 311 1272 266 1120 292 1236 288 1301 -3 58 -9 80 -33 120
            -37 59 -107 108 -175 123 -33 7 -237 11 -580 11 l-529 0 30 88 c44 130 96 332
            118 462 52 308 32 535 -65 721 -108 206 -362 353 -554 319z m193 -293 c60 -35
            124 -108 153 -174 14 -30 32 -98 41 -151 14 -84 15 -115 4 -227 -19 -212 -74
            -438 -172 -703 -61 -167 -64 -209 -15 -258 l34 -34 646 0 c591 0 647 -1 653
            -16 5 -14 -544 -2367 -568 -2431 l-9 -23 -1128 0 -1129 0 -126 77 -127 76 0
            976 1 976 71 55 c384 297 880 917 1332 1665 60 99 118 190 130 203 42 47 115
            44 209 -11z m-1995 -2822 c2 -1100 1 -1181 -15 -1193 -13 -9 -154 -12 -624
            -12 -334 0 -614 3 -623 6 -14 6 -16 120 -16 1195 l0 1189 638 -2 637 -3 3
            -1180z"/>
            <path d="M607 1269 c-222 -54 -301 -324 -142 -484 57 -56 115 -79 205 -79 89
            0 156 29 210 90 57 65 73 115 68 209 -5 92 -31 151 -90 201 -66 55 -172 82
            -251 63z"/>
        </g>
    </symbol>

    <symbol id="dislike" viewBox="0 0 512.000000 512.000000">
        <linearGradient id="gradient1">
            <stop offset="0" stop-color="#009FFC"></stop>
            <stop offset="60%" stop-color="#BCBCBC"></stop>
        </linearGradient>

        <g transform="translate(0.000000,512.000000) scale(0.100000,-0.100000)" fill="url(#gradient1)">
            <path d="M211 4839 c-56 -11 -124 -51 -155 -92 -59 -78 -56 4 -56 -1338 0
            -915 3 -1242 12 -1271 15 -50 78 -122 132 -151 l41 -22 700 0 700 0 53 29 c57
            32 93 73 120 137 l18 42 145 -144 c346 -343 694 -810 1083 -1451 111 -184 143
            -221 225 -263 113 -57 236 -50 380 21 392 193 472 679 232 1416 l-39 117 557
            3 c540 3 557 4 601 24 105 49 160 132 160 242 0 50 -67 347 -290 1289 -160
            673 -296 1238 -304 1256 -19 48 -62 94 -115 125 l-46 27 -1170 3 c-643 2
            -1189 0 -1211 -3 -25 -3 -82 -30 -140 -64 l-99 -58 -37 42 c-21 24 -60 53 -90
            66 l-53 24 -655 2 c-360 0 -675 -3 -699 -8z m1308 -253 c8 -10 10 -329 9
            -1192 l-3 -1179 -635 0 -635 0 -3 1184 c-2 941 0 1186 10 1193 7 4 290 8 629
            8 507 0 619 -2 628 -14z m2780 -18 c23 -64 573 -2418 568 -2432 -6 -15 -62
            -16 -653 -16 l-646 0 -34 -34 c-48 -48 -46 -90 12 -247 142 -387 207 -745 171
            -944 -22 -120 -52 -187 -108 -249 -61 -67 -152 -116 -215 -116 -61 0 -83 25
            -194 210 -456 761 -973 1407 -1357 1698 l-62 47 -1 976 0 976 123 75 122 76
            1133 1 1132 1 9 -22z"/>
            <path d="M588 4407 c-203 -58 -274 -308 -133 -465 143 -159 412 -111 479 86
            22 63 20 167 -3 218 -59 129 -207 199 -343 161z"/>
        </g>
    </symbol>

    <symbol id="phone" viewBox="0 0 512.000000 512.000000">
        <g transform="translate(0.000000,512.000000) scale(0.100000,-0.100000)">
            <path d="M815 5103 c-142 -30 -287 -105 -402 -207 -167 -151 -330 -444 -383
            -691 -31 -145 -39 -445 -15 -621 102 -768 619 -1643 1420 -2403 682 -648 1472
            -1076 2149 -1166 171 -23 477 -16 611 13 256 56 508 191 675 362 92 93 133
            155 185 277 56 130 67 209 63 465 l-3 224 -38 76 c-61 125 -99 153 -533 394
            -208 116 -399 219 -424 228 -28 12 -81 20 -140 23 -106 5 -181 -12 -256 -60
            -32 -20 -330 -281 -496 -435 l-27 -25 -63 23 c-241 87 -524 250 -758 437 -114
            91 -324 296 -422 413 -90 108 -193 257 -261 376 -44 78 -127 262 -127 281 0 6
            108 133 240 284 136 155 253 298 270 330 64 121 75 270 27 388 -31 76 -490
            843 -533 891 -45 50 -116 95 -189 120 -52 18 -83 20 -279 19 -156 0 -242 -5
            -291 -16z m482 -326 c27 -14 77 -92 267 -410 128 -215 236 -402 240 -414 18
            -56 -7 -91 -284 -407 -149 -170 -277 -321 -285 -337 -25 -47 -18 -118 21 -231
            251 -728 1015 -1454 1820 -1727 135 -46 201 -52 249 -23 17 11 150 127 297
            260 147 132 276 245 287 251 50 27 78 16 456 -194 204 -113 382 -218 397 -234
            34 -38 43 -106 34 -265 -8 -144 -18 -189 -62 -281 -62 -133 -190 -242 -396
            -340 -162 -77 -236 -90 -493 -89 -239 0 -307 10 -534 75 -478 137 -997 440
            -1490 867 -163 142 -476 461 -610 622 -425 509 -722 1053 -831 1524 -42 182
            -53 292 -47 476 6 207 25 295 92 439 136 286 294 422 525 451 114 14 310 7
            347 -13z"/>
        </g>
    </symbol>

    <symbol id="email" viewBox="0 0 512.000000 512.000000">
        <g transform="translate(0.000000,512.000000) scale(0.100000,-0.100000)">
            <path d="M2520 5099 c-353 -40 -740 -177 -1056 -375 -323 -202 -636 -515 -839
            -838 -124 -199 -240 -459 -309 -691 -153 -516 -176 -1121 -60 -1580 70 -279
            186 -522 353 -740 65 -86 213 -237 301 -308 331 -267 775 -451 1230 -511 182
            -24 283 -29 328 -17 126 34 172 186 86 281 -43 48 -71 57 -204 65 -329 20
            -685 125 -970 285 -194 110 -391 282 -520 455 -76 103 -178 301 -224 435 -161
            476 -133 1150 70 1699 86 231 245 506 397 689 82 97 250 261 344 335 428 338
            960 509 1474 476 596 -39 1100 -313 1401 -764 215 -320 312 -707 287 -1137 -9
            -156 -20 -232 -54 -361 -86 -333 -264 -560 -539 -687 -125 -58 -201 -75 -346
            -75 -109 1 -132 3 -175 23 -229 105 -232 412 -15 1279 33 131 71 281 85 333
            17 63 24 107 20 130 -25 137 -184 192 -290 99 -26 -23 -40 -49 -56 -100 l-21
            -69 -46 39 c-89 74 -198 124 -347 158 -104 24 -360 22 -485 -5 -503 -106 -831
            -479 -911 -1033 -16 -114 -16 -356 0 -454 36 -219 133 -414 265 -532 162 -144
            356 -202 631 -190 268 12 463 91 641 260 l71 67 39 -66 c76 -130 215 -229 375
            -268 103 -25 267 -31 384 -13 271 42 498 157 691 351 293 294 434 695 434
            1234 0 276 -32 495 -105 717 -252 769 -912 1291 -1768 1400 -128 16 -439 18
            -567 4z m227 -1815 c79 -16 154 -49 210 -91 44 -34 98 -118 119 -186 l18 -57
            -49 -243 c-84 -425 -172 -634 -327 -783 -69 -67 -120 -98 -215 -130 -95 -32
            -275 -44 -375 -24 -180 35 -295 161 -344 375 -23 96 -25 311 -5 425 62 353
            254 594 551 689 129 42 291 51 417 25z"/>
        </g>
    </symbol>

</svg>
