<svg version="1.0" xmlns="http://www.w3.org/2000/svg">

    <symbol id="fact-address" viewBox="0 0 512.000000 512.000000">
        <g transform="translate(0.000000,512.000000) scale(0.100000,-0.100000)">
            <path d="M2030 4669 c-56 -22 -60 -36 -60 -261 l0 -207 -206 -3 -206 -3 -29
            -33 -29 -32 0 -390 0 -390 -256 0 -256 0 -29 -29 -29 -29 0 -220 0 -219 -116
            -5 c-117 -4 -117 -4 -145 -36 l-29 -32 0 -1080 0 -1080 -185 0 -185 0 -32 -29
            c-28 -25 -33 -36 -33 -75 0 -36 6 -51 28 -73 l27 -28 2300 0 2300 0 27 28 c40
            39 40 105 0 144 l-27 28 -410 5 -409 5 161 255 c455 720 612 1034 626 1256 6
            98 -11 220 -45 329 -104 329 -388 587 -721 655 l-87 17 -5 494 c-4 375 -8 499
            -18 516 -26 47 -57 53 -261 53 l-190 0 -3 210 -3 210 -28 27 -27 28 -693 2
            c-439 1 -701 -2 -717 -8z m1260 -334 l0 -135 -555 0 -555 0 0 135 0 135 555 0
            555 0 0 -135z m470 -769 l0 -424 -42 -7 c-136 -21 -287 -78 -401 -151 -97 -62
            -240 -210 -300 -310 -136 -229 -174 -503 -98 -723 77 -222 234 -507 605 -1099
            l145 -232 -294 0 -295 0 0 350 c0 396 -2 409 -66 436 -30 13 -81 15 -301 12
            l-265 -3 -29 -33 -29 -32 0 -365 0 -365 -340 0 -340 0 0 1685 0 1685 1025 0
            1025 0 0 -424z m-2260 -571 l0 -145 -180 0 -180 0 0 145 0 145 180 0 180 0 0
            -145z m2531 -84 c263 -67 463 -253 549 -510 40 -120 50 -238 26 -329 -51 -192
            -199 -466 -565 -1047 -93 -148 -174 -276 -179 -284 -6 -11 -56 62 -189 275
            -336 540 -499 835 -556 1011 -85 261 47 594 306 772 171 117 413 162 608 112z
            m-2531 -1281 l0 -1010 -325 0 -325 0 0 1010 0 1010 325 0 325 0 0 -1010z
            m1370 -715 l0 -295 -135 0 -135 0 0 295 0 295 135 0 135 0 0 -295z"/>
            <path d="M2057 3499 c-42 -25 -47 -56 -47 -301 0 -213 2 -236 20 -265 35 -58
            121 -64 165 -11 25 29 25 33 25 204 l0 174 145 0 145 0 0 -167 c0 -149 2 -172
            20 -200 35 -58 121 -64 165 -11 l25 30 0 250 0 250 -29 29 -29 29 -294 0
            c-180 0 -300 -5 -311 -11z"/>
            <path d="M2048 2651 l-33 -29 0 -257 0 -257 33 -29 c35 -31 73 -37 117 -17 48
            22 55 51 55 238 l0 170 144 0 145 0 3 -181 3 -181 33 -29 c36 -32 77 -37 121
            -15 47 25 51 48 51 301 0 160 -4 242 -12 260 -23 52 -43 55 -347 55 l-281 0
            -32 -29z"/>
            <path d="M3710 2671 c-89 -29 -141 -60 -206 -125 -153 -154 -188 -381 -88
            -578 31 -62 109 -147 173 -187 138 -89 324 -100 476 -27 255 121 355 419 226
            674 -59 115 -164 204 -288 242 -84 26 -215 26 -293 1z m269 -222 c138 -69 194
            -224 133 -363 -84 -189 -328 -228 -466 -75 -105 117 -101 275 9 385 90 90 210
            110 324 53z"/>
        </g>
    </symbol>

    <symbol id="address" viewBox="0 0 512.000000 512.000000">
        <g transform="translate(0.000000,512.000000) scale(0.100000,-0.100000)">
            <path d="M2310 5105 c-494 -85 -904 -370 -1149 -800 -91 -160 -163 -374 -191
            -576 -18 -122 -8 -416 19 -537 59 -273 110 -372 583 -1112 l393 -615 -455 -3
            -456 -2 -31 -33 c-18 -17 -255 -313 -527 -657 -495 -623 -496 -625 -496 -671
            0 -40 4 -51 31 -73 l31 -26 2498 0 2498 0 31 26 c27 22 31 33 31 73 0 46 -1
            48 -496 671 -272 344 -509 640 -527 657 l-31 33 -456 2 -455 3 393 615 c473
            740 524 839 583 1112 27 121 37 415 19 537 -51 358 -209 677 -456 925 -241
            241 -544 394 -894 452 -105 17 -386 16 -490 -1z m473 -210 c141 -25 254 -62
            382 -124 157 -77 271 -160 392 -284 258 -266 393 -598 393 -968 0 -224 -49
            -436 -143 -619 -51 -99 -1235 -1960 -1247 -1960 -12 0 -1196 1861 -1247 1960
            -154 299 -186 673 -87 1018 33 115 127 305 204 414 79 110 240 268 351 341
            165 109 355 186 549 221 105 19 345 19 453 1z m-1056 -3655 c-8 -11 -84 -108
            -168 -215 l-154 -194 -294 -1 c-289 0 -293 0 -280 20 8 10 84 107 169 214
            l155 196 293 0 c293 0 293 0 279 -20z m506 -195 l133 -210 -173 -3 c-96 -1
            -251 -1 -344 0 l-170 3 168 213 168 212 42 -2 42 -3 134 -210z m1041 0 l167
            -210 -170 -3 c-93 -1 -248 -1 -343 0 l-174 3 135 213 135 213 42 -3 c41 -3 43
            -5 208 -213z m845 20 c84 -107 160 -204 168 -215 14 -20 14 -20 -279 -20
            l-293 0 -155 196 c-85 107 -161 204 -169 214 -13 20 -9 20 280 20 l294 -1 154
            -194z m-2892 -455 c-8 -11 -84 -108 -168 -215 l-154 -194 -294 -1 c-289 0
            -293 0 -280 20 8 10 84 107 169 214 l155 196 293 0 c293 0 293 0 279 -20z
            m2546 -193 l168 -212 -691 -3 c-379 -1 -1001 -1 -1381 0 l-690 3 168 212 168
            213 1045 -1 1045 0 168 -212z m846 18 c84 -107 160 -204 168 -215 14 -20 14
            -20 -279 -20 l-293 0 -155 196 c-85 107 -161 204 -169 214 -13 20 -9 20 280
            20 l294 -1 154 -194z"/>
            <path d="M2361 4505 c-155 -35 -260 -80 -380 -166 -188 -132 -320 -318 -387
            -544 -36 -121 -45 -340 -19 -466 34 -171 97 -308 202 -438 130 -163 295 -273
            508 -338 84 -25 102 -27 275 -27 173 0 191 2 275 27 345 106 589 350 692 692
            25 84 27 103 27 275 0 173 -2 191 -27 275 -37 119 -75 199 -139 292 -134 194
            -322 330 -553 399 -78 23 -112 27 -250 30 -114 3 -178 -1 -224 -11z m372 -211
            c40 -9 113 -35 162 -58 279 -132 455 -407 455 -713 0 -131 -20 -223 -74 -338
            -218 -463 -812 -602 -1210 -283 -134 108 -244 282 -280 445 -21 92 -21 254 0
            346 22 99 90 239 156 321 106 132 270 237 431 277 94 23 264 24 360 3z"/>
            <path d="M3086 2494 c-21 -21 -26 -36 -26 -74 0 -38 5 -53 26 -74 21 -21 36
            -26 74 -26 38 0 53 5 74 26 21 21 26 36 26 74 0 38 -5 53 -26 74 -21 21 -36
            26 -74 26 -38 0 -53 -5 -74 -26z"/>
            <path d="M2878 2184 c-19 -10 -85 -110 -223 -340 -166 -277 -195 -332 -195
            -366 0 -82 98 -129 163 -78 14 11 112 163 216 338 168 279 191 322 191 360 0
            78 -82 125 -152 86z"/>
        </g>
    </symbol>

    <symbol id="telegram" viewBox="0 0 512.000000 512.000000">
        <g transform="translate(0.000000,512.000000) scale(0.100000,-0.100000)">
            <path d="M2230 5104 c-1022 -131 -1871 -871 -2145 -1869 -59 -217 -77 -344
            -82 -603 -6 -255 3 -381 43 -578 132 -668 534 -1262 1109 -1640 331 -217 694
            -350 1095 -400 152 -19 472 -18 630 1 748 93 1416 512 1833 1150 210 321 344
            690 392 1075 20 162 20 478 0 640 -92 744 -509 1411 -1140 1826 -329 216 -695
            350 -1085 399 -153 19 -501 18 -650 -1z m1549 -1564 c34 -35 46 -82 37 -143
            -21 -129 -429 -2028 -443 -2060 -21 -48 -66 -87 -101 -87 -50 1 -107 37 -415
            264 -170 125 -315 230 -323 233 -9 3 -77 -56 -185 -158 -180 -173 -184 -176
            -229 -189 -27 -8 -28 -7 -24 29 2 20 11 142 19 271 8 129 18 258 21 287 l5 52
            600 541 c382 346 599 548 599 560 0 26 -32 34 -72 17 -18 -8 -362 -222 -764
            -475 l-731 -460 -254 79 c-140 44 -291 91 -335 105 -133 40 -167 93 -100 152
            20 17 92 52 177 85 79 31 650 252 1269 491 879 339 1135 435 1172 435 39 1 51
            -4 77 -29z"/>
        </g>
    </symbol>

    <symbol id="youtube" viewBox="0 0 512.000000 512.000000">
        <g transform="translate(0.000000,512.000000) scale(0.100000,-0.100000)">
            <path d="M2310 5113 c-485 -49 -947 -234 -1330 -531 -117 -91 -316 -287 -413
            -407 -279 -346 -461 -750 -539 -1199 -29 -172 -37 -551 -14 -726 43 -322 122
            -581 263 -858 118 -233 256 -424 448 -621 414 -425 923 -678 1525 -757 174
            -22 553 -15 726 15 262 45 485 117 719 232 248 122 448 263 654 464 397 387
            647 864 742 1419 30 174 37 541 15 726 -92 751 -507 1419 -1141 1836 -329 216
            -695 350 -1085 399 -113 14 -466 19 -570 8z m1176 -1604 c188 -34 349 -186
            399 -374 22 -88 22 -1062 0 -1150 -50 -188 -211 -340 -399 -374 -76 -14 -1771
            -15 -1842 -2 -182 35 -325 153 -395 328 l-24 58 -3 534 c-2 365 1 551 8 588
            39 187 210 356 395 391 73 14 1785 15 1861 1z"/>
            <path d="M2200 2560 c0 -232 3 -419 8 -417 56 29 712 413 712 417 0 4 -606
            360 -687 403 l-33 17 0 -420z"/>
        </g>
    </symbol>

    <symbol id="vk" viewBox="0 0 512.000000 512.000000">
        <g transform="translate(0.000000,512.000000) scale(0.100000,-0.100000)">
            <path d="M2310 5113 c-485 -49 -947 -234 -1330 -531 -117 -91 -316 -287 -413
            -407 -279 -346 -461 -750 -539 -1199 -29 -172 -37 -551 -14 -726 43 -322 122
            -581 263 -858 118 -233 256 -424 448 -621 414 -425 923 -678 1525 -757 174
            -22 553 -15 726 15 262 45 485 117 719 232 248 122 448 263 654 464 397 387
            647 864 742 1419 30 174 37 541 15 726 -92 751 -507 1419 -1141 1836 -329 216
            -695 350 -1085 399 -113 14 -466 19 -570 8z m414 -1916 c53 -35 59 -69 54
            -307 -6 -244 1 -323 31 -354 32 -32 65 -12 143 84 88 108 168 243 236 395 29
            66 60 126 69 133 13 9 83 12 273 12 299 0 306 -2 297 -76 -7 -70 -64 -167
            -223 -384 -170 -230 -184 -254 -184 -305 0 -34 13 -50 158 -198 180 -184 252
            -281 252 -339 0 -86 -56 -102 -323 -95 -256 7 -254 6 -438 195 -145 151 -176
            169 -224 138 -27 -18 -37 -48 -60 -181 -12 -70 -21 -96 -41 -115 -24 -24 -28
            -25 -167 -24 -114 0 -159 5 -227 23 -225 60 -411 194 -577 419 -140 190 -269
            407 -385 651 -107 223 -112 238 -93 268 l16 24 229 -3 229 -3 29 -28 c17 -16
            38 -50 47 -75 30 -81 127 -264 186 -352 77 -115 123 -166 159 -179 41 -14 64
            9 79 78 14 64 14 373 1 422 -12 44 -43 74 -94 91 -22 7 -41 18 -43 24 -5 16
            46 63 81 74 17 5 132 8 256 7 200 -2 229 -4 254 -20z"/>
        </g>
    </symbol>

    <symbol id="phone" viewBox="0 0 512.000000 512.000000">
        <g transform="translate(0.000000,512.000000) scale(0.100000,-0.100000)">
            <path d="M815 5103 c-142 -30 -287 -105 -402 -207 -167 -151 -330 -444 -383
            -691 -31 -145 -39 -445 -15 -621 102 -768 619 -1643 1420 -2403 682 -648 1472
            -1076 2149 -1166 171 -23 477 -16 611 13 256 56 508 191 675 362 92 93 133
            155 185 277 56 130 67 209 63 465 l-3 224 -38 76 c-61 125 -99 153 -533 394
            -208 116 -399 219 -424 228 -28 12 -81 20 -140 23 -106 5 -181 -12 -256 -60
            -32 -20 -330 -281 -496 -435 l-27 -25 -63 23 c-241 87 -524 250 -758 437 -114
            91 -324 296 -422 413 -90 108 -193 257 -261 376 -44 78 -127 262 -127 281 0 6
            108 133 240 284 136 155 253 298 270 330 64 121 75 270 27 388 -31 76 -490
            843 -533 891 -45 50 -116 95 -189 120 -52 18 -83 20 -279 19 -156 0 -242 -5
            -291 -16z m482 -326 c27 -14 77 -92 267 -410 128 -215 236 -402 240 -414 18
            -56 -7 -91 -284 -407 -149 -170 -277 -321 -285 -337 -25 -47 -18 -118 21 -231
            251 -728 1015 -1454 1820 -1727 135 -46 201 -52 249 -23 17 11 150 127 297
            260 147 132 276 245 287 251 50 27 78 16 456 -194 204 -113 382 -218 397 -234
            34 -38 43 -106 34 -265 -8 -144 -18 -189 -62 -281 -62 -133 -190 -242 -396
            -340 -162 -77 -236 -90 -493 -89 -239 0 -307 10 -534 75 -478 137 -997 440
            -1490 867 -163 142 -476 461 -610 622 -425 509 -722 1053 -831 1524 -42 182
            -53 292 -47 476 6 207 25 295 92 439 136 286 294 422 525 451 114 14 310 7
            347 -13z"/>
        </g>
    </symbol>

    <symbol id="email" viewBox="0 0 512.000000 512.000000">
        <g transform="translate(0.000000,512.000000) scale(0.100000,-0.100000)">
            <path d="M2520 5099 c-353 -40 -740 -177 -1056 -375 -323 -202 -636 -515 -839
            -838 -124 -199 -240 -459 -309 -691 -153 -516 -176 -1121 -60 -1580 70 -279
            186 -522 353 -740 65 -86 213 -237 301 -308 331 -267 775 -451 1230 -511 182
            -24 283 -29 328 -17 126 34 172 186 86 281 -43 48 -71 57 -204 65 -329 20
            -685 125 -970 285 -194 110 -391 282 -520 455 -76 103 -178 301 -224 435 -161
            476 -133 1150 70 1699 86 231 245 506 397 689 82 97 250 261 344 335 428 338
            960 509 1474 476 596 -39 1100 -313 1401 -764 215 -320 312 -707 287 -1137 -9
            -156 -20 -232 -54 -361 -86 -333 -264 -560 -539 -687 -125 -58 -201 -75 -346
            -75 -109 1 -132 3 -175 23 -229 105 -232 412 -15 1279 33 131 71 281 85 333
            17 63 24 107 20 130 -25 137 -184 192 -290 99 -26 -23 -40 -49 -56 -100 l-21
            -69 -46 39 c-89 74 -198 124 -347 158 -104 24 -360 22 -485 -5 -503 -106 -831
            -479 -911 -1033 -16 -114 -16 -356 0 -454 36 -219 133 -414 265 -532 162 -144
            356 -202 631 -190 268 12 463 91 641 260 l71 67 39 -66 c76 -130 215 -229 375
            -268 103 -25 267 -31 384 -13 271 42 498 157 691 351 293 294 434 695 434
            1234 0 276 -32 495 -105 717 -252 769 -912 1291 -1768 1400 -128 16 -439 18
            -567 4z m227 -1815 c79 -16 154 -49 210 -91 44 -34 98 -118 119 -186 l18 -57
            -49 -243 c-84 -425 -172 -634 -327 -783 -69 -67 -120 -98 -215 -130 -95 -32
            -275 -44 -375 -24 -180 35 -295 161 -344 375 -23 96 -25 311 -5 425 62 353
            254 594 551 689 129 42 291 51 417 25z"/>
        </g>
    </symbol>

</svg>
